<?xml version="1.0" encoding="UTF-8" standalone="no"?>
<!-- Created with Inkscape (http://www.inkscape.org/) -->

<svg
   xmlns:dc="http://purl.org/dc/elements/1.1/"
   xmlns:cc="http://creativecommons.org/ns#"
   xmlns:rdf="http://www.w3.org/1999/02/22-rdf-syntax-ns#"
   xmlns:svg="http://www.w3.org/2000/svg"
   xmlns="http://www.w3.org/2000/svg"
   xmlns:sodipodi="http://sodipodi.sourceforge.net/DTD/sodipodi-0.dtd"
   xmlns:inkscape="http://www.inkscape.org/namespaces/inkscape"
   width="300"
   height="155"
   viewBox="0 0 79.374998 41.010418"
   version="1.1"
   id="svg8"
   inkscape:version="0.92.3 (2405546, 2018-03-11)"
   sodipodi:docname="logo.svg"
   inkscape:export-filename="/home/jimbras/Pintalhao/horta-da-cooperativa.github.io/assets/images/logo.svg.png"
   inkscape:export-xdpi="96"
   inkscape:export-ydpi="96">
  <defs
     id="defs2" />
  <sodipodi:namedview
     id="base"
     pagecolor="#ffffff"
     bordercolor="#666666"
     borderopacity="1.0"
     inkscape:pageopacity="0.0"
     inkscape:pageshadow="2"
     inkscape:zoom="1.979899"
     inkscape:cx="60.749884"
     inkscape:cy="-14.867751"
     inkscape:document-units="mm"
     inkscape:current-layer="layer1"
     showgrid="false"
     inkscape:window-width="1865"
     inkscape:window-height="1025"
     inkscape:window-x="55"
     inkscape:window-y="27"
     inkscape:window-maximized="1"
     units="px"
     fit-margin-top="0"
     fit-margin-left="0"
     fit-margin-right="0"
     fit-margin-bottom="0" />
  <metadata
     id="metadata5">
    <rdf:RDF>
      <cc:Work
         rdf:about="">
        <dc:format>image/svg+xml</dc:format>
        <dc:type
           rdf:resource="http://purl.org/dc/dcmitype/StillImage" />
        <dc:title />
      </cc:Work>
    </rdf:RDF>
  </metadata>
  <g
     inkscape:label="Layer 1"
     inkscape:groupmode="layer"
     id="layer1"
     transform="translate(-63.197617,-6.9863423)">
    <path
       style="fill:#aca793;stroke-width:0.06485004"
       d="m 66.020337,43.941218 c -0.07278,-0.08046 -0.199724,-0.129707 -0.334284,-0.129707 h -0.216908 v -0.999837 c 0,-0.736459 0.02142,-1.009803 0.08104,-1.037669 0.06489,-0.03025 0.06489,-0.04541 0,-0.07567 -0.04461,-0.02079 -0.08104,-0.07511 -0.08104,-0.120673 0,-0.08621 0.583983,-0.188213 0.731548,-0.127768 0.18266,0.07482 0.306619,0.352132 0.31473,0.704107 0.0076,0.307478 0.02639,0.360421 0.131076,0.360421 0.174688,0 0.281347,-0.305262 0.175662,-0.502745 -0.0725,-0.135486 -0.05954,-0.172319 0.126232,-0.358086 0.165512,-0.165544 0.257352,-0.205741 0.457976,-0.200484 l 0.25095,0.0066 0.203347,-0.494082 c 0.17985,-0.436981 0.203299,-0.566277 0.202837,-1.118583 -5.62e-4,-0.684867 0.167833,-1.779707 0.386919,-2.51547 0.07729,-0.259464 0.125919,-0.509688 0.108132,-0.556046 -0.01775,-0.04635 -0.22966,-0.149965 -0.470844,-0.230234 -0.517203,-0.172135 -0.738034,-0.36481 -0.738034,-0.643916 0,-0.109121 -0.03643,-0.256951 -0.08104,-0.328518 -0.07044,-0.113068 -0.03664,-0.21706 0.258056,-0.793581 0.18652,-0.364909 0.547923,-0.999083 0.803116,-1.409289 0.255194,-0.410201 0.609327,-0.979298 0.786962,-1.264657 0.443195,-0.711987 0.806193,-1.242643 1.086902,-1.588931 0.31717,-0.391262 0.291834,-0.334276 0.547798,-1.232158 0.124436,-0.436511 0.299856,-0.919285 0.389829,-1.072832 0.285468,-0.487168 1.051697,-1.07779 1.903304,-1.467086 l 0.75724,-0.346171 0.761945,0.0074 c 0.520876,0.005 0.761768,-0.01553 0.761392,-0.06485 -2.73e-4,-0.03969 -0.142543,-0.393204 -0.316103,-0.785571 -0.946717,-2.140239 -1.526736,-3.480861 -1.696764,-3.921816 -0.105033,-0.272406 -0.293187,-0.665051 -0.418121,-0.872546 -0.124934,-0.207498 -0.227144,-0.406191 -0.227144,-0.441548 0,-0.03536 -0.128549,-0.345559 -0.285656,-0.689327 -1.23566,-2.703734 -1.505053,-3.381303 -1.97613,-4.970281 -0.445251,-1.50188 -0.540493,-2.106421 -0.368437,-2.338566 0.160679,-0.216798 0.257476,-0.0012 0.452691,1.009053 0.338133,1.749514 0.512433,2.267274 1.288155,3.826404 0.44407,0.892544 0.483539,0.948832 0.775667,1.106384 0.169285,0.0913 0.396316,0.250824 0.504507,0.354493 0.193187,0.185101 0.777967,1.203902 0.873854,1.522424 0.02687,0.08916 0.164489,0.410199 0.305874,0.713392 0.141379,0.303196 0.326188,0.740961 0.410695,0.972813 0.08451,0.231854 0.283402,0.727992 0.442003,1.102523 1.065426,2.516042 1.427655,3.350335 1.487013,3.424884 0.04724,0.05929 0.147352,0.07169 0.332067,0.0411 0.462682,-0.07658 0.491445,-0.111634 0.491445,-0.598686 0,-0.397521 -0.01662,-0.451373 -0.189561,-0.614637 -0.104263,-0.09842 -0.209113,-0.267942 -0.233003,-0.376732 -0.02592,-0.118123 -0.19683,-0.350732 -0.424255,-0.577479 -0.516716,-0.515189 -1.01464,-1.289087 -1.070928,-1.664517 -0.05785,-0.385602 0.05738,-0.761139 0.282013,-0.919011 0.09719,-0.06831 0.355073,-0.186998 0.573089,-0.26374 0.337013,-0.11863 0.478579,-0.13321 0.945214,-0.09734 l 0.548823,0.04219 0.168976,-0.288382 c 0.185016,-0.315733 1.355637,-1.280153 1.757917,-1.448258 0.455301,-0.190263 1.02882,-0.11515 2.083654,0.272888 0.580272,0.213463 0.722485,0.346404 0.815566,0.762377 0.0726,0.324637 0.05222,1.117181 -0.03794,1.468196 -0.05249,0.204501 0.09995,0.383147 0.326909,0.383147 0.482505,0 1.323502,0.533619 1.497541,0.950205 0.134916,0.322959 0.01069,0.778401 -0.365769,1.339739 -0.40384,0.602358 -0.844819,0.903046 -1.542757,1.051968 -0.274482,0.05855 -0.552307,0.121235 -0.617394,0.139266 -0.106486,0.02947 -0.11386,0.003 -0.07372,-0.26498 0.03672,-0.244641 0.02676,-0.297752 -0.05559,-0.297752 -0.05512,0 -0.118821,0.06566 -0.141509,0.145916 -0.02273,0.08027 -0.08151,0.233475 -0.130691,0.340493 -0.0492,0.107009 -0.163465,0.36491 -0.253925,0.573121 -0.11559,0.266026 -0.29008,0.498141 -0.586987,0.780826 -0.232374,0.221249 -0.422499,0.437511 -0.422499,0.480575 0,0.04308 0.131546,0.257022 0.292315,0.475447 0.191843,0.26063 0.338255,0.556065 0.425964,0.859501 0.199244,0.689277 0.234749,0.752616 0.479294,0.854801 0.231086,0.09657 0.68296,0.503456 0.68296,0.614967 0,0.03451 0.03588,0.06269 0.07964,0.06269 0.04375,0 0.196058,0.124032 0.338348,0.27563 l 0.258713,0.275632 -0.01699,0.510573 c -0.01342,0.40462 0.0057,0.535636 0.0923,0.631338 0.08781,0.09701 0.100223,0.187934 0.0633,0.462243 -0.02525,0.187808 -0.05475,0.706278 -0.06546,1.152151 -0.01069,0.445872 -0.06723,1.175482 -0.125534,1.621355 -0.193543,1.479816 -0.235444,1.84659 -0.233368,2.042913 0.0018,0.170946 0.01058,0.179916 0.07213,0.0739 0.03859,-0.06637 0.13731,-0.329022 0.219452,-0.583689 0.08216,-0.254668 0.311781,-0.842435 0.510302,-1.306138 0.331107,-0.773391 0.361056,-0.883733 0.36219,-1.334436 9.4e-4,-0.450425 0.09287,-1.239609 0.259429,-2.23255 0.03588,-0.214019 0.06546,-0.893721 0.06564,-1.510443 2.43e-4,-1.015478 -0.01259,-1.146799 -0.137322,-1.391246 -0.213196,-0.417975 -0.381215,-0.953682 -0.379648,-1.210496 7.22e-4,-0.128178 0.06207,-0.364382 0.136119,-0.524896 0.07409,-0.160513 0.257108,-0.628055 0.406722,-1.038978 0.410854,-1.128466 0.867102,-1.736574 1.51944,-2.025172 0.227631,-0.100694 0.396072,-0.122258 0.813866,-0.104124 l 0.526838,0.02282 -0.01681,-0.259415 c -0.0369,-0.56907 -0.228758,-1.7605 -0.308109,-1.913202 -0.04639,-0.08917 -0.163737,-0.235096 -0.260885,-0.324271 C 86.007771,21.608987 85.96666,21.406772 85.863807,19.672552 85.761188,17.942536 85.717018,17.66594 85.499051,17.3888 85.268272,17.095376 84.48812,16.778137 83.090917,16.409563 82.581481,16.27518 82.543439,16.185636 82.863954,15.875379 c 0.285861,-0.276707 0.607937,-0.399524 1.167095,-0.44507 1.544721,-0.125829 3.346908,1.127977 3.62306,2.520614 0.04065,0.205097 0.106613,0.372715 0.146561,0.372482 0.03992,-2.42e-4 0.160167,-0.05901 0.267167,-0.13062 0.509327,-0.340855 1.589868,-0.487777 2.302018,-0.313004 0.160496,0.03938 0.58781,0.06667 0.94959,0.06061 1.071969,-0.01791 1.461432,0.119743 2.071963,0.73252 0.217403,0.218213 0.566457,0.4989 0.775673,0.623744 0.209215,0.124845 0.617458,0.460464 0.907219,0.745821 0.908601,0.894804 1.342001,1.594731 1.418379,2.290591 0.06978,0.636007 -0.07155,0.977262 -0.637125,1.538204 -0.81242,0.805757 -1.688397,1.126863 -3.21609,1.178933 -1.249963,0.04261 -1.598492,0.148802 -1.791031,0.545763 -0.0756,0.155869 -0.156778,0.390765 -0.180396,0.521996 -0.0418,0.232063 -0.02648,0.255689 0.558954,0.862933 0.331043,0.343381 0.628661,0.682028 0.66139,0.752544 0.0818,0.176194 -0.04631,0.307449 -0.186432,0.191117 -0.08865,-0.07355 -0.10002,-0.02801 -0.10002,0.398937 0,0.323361 -0.03137,0.523373 -0.0952,0.607838 -0.0524,0.06923 -0.0952,0.184258 -0.0952,0.255601 0,0.07135 0.04281,0.186359 0.0952,0.255592 0.0524,0.06924 0.0952,0.178688 0.0952,0.243211 0,0.06453 0.03841,0.117311 0.08544,0.117311 0.12065,0 0.303461,0.626127 0.304644,1.043366 9.39e-4,0.43101 0.0756,0.577117 0.240337,0.471861 0.09344,-0.05974 0.111851,-0.147815 0.097,-0.465053 -0.01954,-0.417627 0.03784,-0.516179 0.230457,-0.395852 0.09502,0.05935 0.166714,0.05101 0.343071,-0.03987 0.122625,-0.0632 0.258715,-0.165551 0.30241,-0.227435 0.04367,-0.06188 0.269365,-0.188546 0.501477,-0.281473 0.2321,-0.09294 0.531495,-0.227655 0.665304,-0.299383 0.153847,-0.08247 0.366586,-0.130419 0.578629,-0.130419 0.332461,0 0.338985,-0.004 0.762903,-0.461871 0.472015,-0.509892 0.504958,-0.623797 0.297874,-1.029775 -0.221396,-0.434032 -0.144336,-0.648546 0.232994,-0.648546 0.205187,0 0.329895,-0.135541 0.247454,-0.268954 -0.077,-0.124653 0.04423,-0.3793 0.225124,-0.472875 0.119178,-0.06162 0.198764,-0.164822 0.223846,-0.290229 0.0462,-0.231188 0.330255,-0.406098 0.529604,-0.326147 0.206274,0.08272 0.292834,0.06932 0.338094,-0.05239 0.0778,-0.209311 0.30879,-0.482017 0.48621,-0.574175 0.1598,-0.08302 0.18198,-0.07985 0.24316,0.03448 0.037,0.06919 0.0601,0.192199 0.0511,0.27335 -0.0374,0.341387 0.20839,0.196862 0.97323,-0.572026 0.4195,-0.421722 0.930209,-0.91672 1.134919,-1.099998 0.2956,-0.264646 0.37221,-0.373104 0.37221,-0.526944 0,-0.39306 -0.089,-0.612062 -0.3815,-0.936997 -0.16465,-0.183038 -0.41611,-0.509472 -0.55877,-0.725404 -0.232659,-0.35213 -0.301519,-0.408538 -0.668119,-0.54715 -0.338,-0.127798 -0.46471,-0.221814 -0.73213,-0.543198 -0.396069,-0.475987 -0.871759,-1.405358 -0.99776,-1.949372 -0.0812,-0.350912 -0.0815,-0.494221 -0.002,-1.085264 0.14901,-1.102853 0.23214,-1.290015 0.72302,-1.627791 0.38057,-0.261882 1.02329,-0.461784 2.082349,-0.647672 0.75036,-0.131705 0.8959,-0.138505 1.58264,-0.07398 0.50065,0.04704 0.87328,0.120003 1.10237,0.215838 0.81653,0.341549 1.74367,1.115551 2.05076,1.712043 0.13644,0.265037 0.1737,0.447721 0.20383,1.000069 0.0205,0.375707 0.0668,0.68565 0.10409,0.697977 0.15025,0.04957 0.61061,-0.381988 0.77243,-0.724091 0.10537,-0.222695 0.21794,-0.364794 0.31118,-0.392678 0.38389,-0.11484 1.53281,-1.004362 2.22804,-1.724998 0.6524,-0.676241 0.98937,-1.233258 1.3973,-2.309772 0.14377,-0.379447 0.31423,-0.4594 0.31423,-0.147403 0,0.227162 -0.22262,0.841551 -0.51442,1.41967 -0.24106,0.477608 -0.22786,0.607821 0.0559,0.551064 0.13969,-0.02797 0.26433,0.003 0.44018,0.109958 0.20587,0.124985 0.37572,0.156344 1.05589,0.194966 0.44582,0.02534 0.85654,0.06506 0.91272,0.08833 0.0562,0.02326 0.15507,0.162259 0.21976,0.308892 0.0648,0.146648 0.21575,0.375257 0.33568,0.508033 0.15316,0.169532 0.23765,0.344626 0.28382,0.588091 0.0361,0.19067 0.13823,0.451304 0.22684,0.579178 0.0886,0.127876 0.1613,0.318486 0.16153,0.423585 2.4e-4,0.105086 0.0585,0.278624 0.12926,0.385635 0.19858,0.299891 0.17356,0.815788 -0.0687,1.415866 -0.14441,0.357705 -0.18173,0.52312 -0.13716,0.60788 0.0338,0.06405 0.0813,0.276963 0.1058,0.473142 0.0668,0.533931 0.093,0.593867 0.25031,0.57126 0.15212,-0.02187 0.52024,-0.464781 1.61157,-1.938991 0.3805,-0.51403 0.93848,-1.231357 1.23992,-1.594073 0.30145,-0.362707 0.56705,-0.735098 0.59025,-0.827526 0.0232,-0.09242 0.33301,-0.515199 0.68848,-0.93948 0.35547,-0.424287 0.67584,-0.849073 0.71191,-0.943972 0.036,-0.0949 0.0656,-0.315321 0.0656,-0.489827 0,-0.281543 0.0237,-0.335511 0.21075,-0.479063 0.95468,-0.732839 1.27519,-1.017957 1.68534,-1.499198 0.64327,-0.7548 0.95712,-1.352373 0.95712,-1.822393 0,-0.452958 -0.24015,-1.179206 -0.63432,-1.9183204 -0.16558,-0.310482 -0.28002,-0.5855436 -0.25433,-0.6112476 0.0746,-0.07455 0.79866,0.0844 1.16726,0.2562076 0.18558,0.08651 0.45955,0.247357 0.60881,0.35743 0.33099,0.2440937 0.77088,0.8769364 0.93584,1.3463674 0.16589,0.472017 0.16368,1.258098 -0.004,1.62874 -0.12837,0.282821 -1.80008,2.127465 -3.24997,3.586172 -0.44326,0.445948 -1.02115,1.09465 -1.28424,1.441564 -0.26307,0.346909 -0.57262,0.70269 -0.68788,0.790621 -0.11528,0.08792 -0.64414,0.749368 -1.17526,1.469871 -0.53112,0.720502 -1.06158,1.42665 -1.17882,1.569224 -0.11723,0.142573 -0.20241,0.291646 -0.18929,0.331275 0.0131,0.03985 0.26781,0.0933 0.56981,0.119598 0.75098,0.06538 1.02364,0.141208 1.47512,0.410185 0.72013,0.429037 1.86904,1.878503 2.47742,3.125477 0.25883,0.53054 0.42256,0.794466 0.49285,0.794466 0.0579,0 0.7155,-0.336984 1.46135,-0.748857 1.60004,-0.883581 2.17974,-1.131918 2.64224,-1.131918 0.18495,0 0.32965,-0.02961 0.32965,-0.06745 0,-0.312581 -0.70877,-1.032119 -1.11699,-1.13396 -0.41381,-0.103237 -1.03173,-0.813041 -1.56533,-1.798106 -0.16906,-0.312113 -0.3474,-0.567474 -0.39632,-0.567474 -0.0488,0 -0.15683,-0.0898 -0.23978,-0.199562 -0.37344,-0.494071 -0.40641,-0.513838 -0.85697,-0.513838 -0.43598,0 -0.7529,-0.08007 -0.7529,-0.19019 0,-0.03503 0.20427,-0.226701 0.45392,-0.425924 l 0.45393,-0.362226 9.4e-4,-0.337721 c 0.002,-0.734936 0.21232,-1.515234 0.63983,-2.380632 0.0806,-0.162987 0.59912,-0.389124 0.89236,-0.389124 0.15062,0 0.356,-0.03127 0.45639,-0.06954 0.3506,-0.133561 1.39543,-0.318746 1.56645,-0.277629 0.86044,0.206892 2.15506,1.33959 2.64789,2.316699 0.0922,0.183037 0.2506,0.449535 0.35174,0.592214 0.12979,0.183117 0.20328,0.392952 0.24983,0.713395 0.11711,0.805939 0.12391,1.590482 0.0178,2.055604 -0.11166,0.489672 -0.0605,0.649755 0.2639,0.823345 0.14656,0.07844 0.18986,0.07451 0.3629,-0.033 0.33996,-0.21119 1.81953,-1.273671 2.30126,-1.652531 0.2539,-0.199698 0.97232,-0.707622 1.59645,-1.12873 1.5601,-1.052587 1.93156,-1.315951 2.26961,-1.60914 0.16049,-0.139188 0.58361,-0.443887 0.94026,-0.6771 0.78503,-0.513327 0.92619,-0.636221 1.03842,-0.904152 0.0606,-0.144502 0.1863,-0.257668 0.41528,-0.373717 0.48442,-0.245509 2.54479,-1.612021 2.70298,-1.792713 0.0749,-0.08559 0.15428,-0.206715 0.17633,-0.269159 0.0699,-0.197913 -0.30128,-0.523633 -1.1323,-0.993804 -0.98865,-0.559362 -1.08986,-0.637383 -0.97653,-0.752615 0.0961,-0.09766 1.5561,-0.12286 1.9746,-0.03409 l 0.24317,0.05159 -0.002,2.023757 -0.002,2.023756 -0.95438,0.510764 c -0.55825,0.298773 -1.06202,0.524234 -1.21373,0.543223 -0.31542,0.03948 -0.49222,0.142067 -1.49968,0.870122 -0.43253,0.312562 -0.87024,0.604597 -0.97271,0.648965 -0.4896,0.212005 -3.92076,2.810871 -3.96686,3.004646 -0.0128,0.05359 0.11084,0.105203 0.35666,0.148953 0.56236,0.100095 0.89008,0.266508 1.63597,0.830841 0.37191,0.281383 0.79628,0.602346 0.94304,0.713253 0.53356,0.403235 0.73312,0.722166 1.09261,1.746274 0.12477,0.355437 0.31883,0.865132 0.43125,1.132655 0.11234,0.267523 0.30352,0.741162 0.42473,1.052527 0.12119,0.311366 0.35288,0.824607 0.51481,1.140533 0.16195,0.315929 0.29446,0.640486 0.29446,0.721236 0,0.146936 -0.28342,0.469575 -0.57832,0.658365 -0.13216,0.0846 -0.15994,0.160873 -0.17674,0.485123 -0.0314,0.606181 -0.0764,0.755808 -0.29546,0.981802 l -0.20498,0.211515 0.30055,0.633374 c 0.16529,0.348359 0.42149,0.939815 0.56935,1.314351 0.36783,0.931806 0.65392,1.579836 1.10235,2.496887 0.38676,0.790996 0.52867,1.232021 0.46935,1.45885 -0.023,0.08795 0.0687,0.239081 0.30421,0.500925 0.36615,0.407262 0.45507,0.575518 0.45507,0.861184 0,0.102254 0.0909,0.428676 0.2023,0.72539 0.19468,0.519142 0.19972,0.557802 0.13415,1.025878 -0.0374,0.267525 -0.17093,0.734471 -0.29655,1.037666 -0.20489,0.494556 -0.23142,0.627979 -0.25782,1.297088 -0.016,0.410201 -0.0663,0.913634 -0.1112,1.118738 l -0.0818,0.372909 h -7.24804 c -4.07242,0 -7.26344,-0.02485 -7.28314,-0.05676 -0.0192,-0.03121 0.0752,-0.07439 0.21008,-0.09596 0.20829,-0.0333 0.26215,-0.07779 0.35838,-0.295916 0.0847,-0.192196 0.15607,-0.261801 0.28366,-0.276957 0.22725,-0.02697 0.34062,-0.329591 0.18707,-0.499294 -0.15808,-0.174677 -0.13099,-0.3894 0.0583,-0.461334 0.18254,-0.0694 0.21077,-0.256739 0.0782,-0.518834 -0.0628,-0.124401 -0.13439,-0.163093 -0.30706,-0.166248 -0.12377,-0.0022 -0.26883,0.03049 -0.32232,0.07277 -0.12289,0.09714 -0.52078,0.10771 -0.63033,0.01678 -0.0456,-0.03785 -0.083,-0.137369 -0.083,-0.22109 0,-0.123176 0.0799,-0.190804 0.4191,-0.354378 l 0.41909,-0.202153 -0.12661,-0.334867 c -0.0697,-0.184174 -0.21471,-0.407828 -0.3224,-0.497 -0.22945,-0.189992 -0.25056,-0.394865 -0.065,-0.630845 0.0714,-0.0907 0.12969,-0.262094 0.12969,-0.380886 0,-0.145518 0.0609,-0.285491 0.18691,-0.429022 0.15754,-0.179573 0.17283,-0.226169 0.0971,-0.296657 -0.12854,-0.119931 -0.11302,-0.184921 0.0966,-0.404365 0.3095,-0.323919 0.46178,-1.501156 0.33726,-2.607305 -0.17103,-1.518991 -0.21323,-1.761818 -0.43363,-2.49422 -0.18089,-0.6012 -0.23984,-0.92941 -0.27373,-1.524077 -0.0404,-0.710111 -0.0545,-0.769603 -0.2215,-0.943936 -0.10152,-0.105941 -0.17831,-0.259002 -0.17831,-0.355457 0,-0.220088 -0.0791,-0.240047 -0.55005,-0.138871 -0.21463,0.04608 -0.60178,0.08485 -0.86034,0.08609 -0.34477,0.0014 -0.47016,0.02507 -0.47016,0.08778 0,0.04702 0.23761,0.272681 0.52802,0.501445 0.57688,0.454478 1.13107,1.08846 1.19135,1.362942 0.0431,0.196216 -0.33054,1.825682 -0.59386,2.589906 -0.30742,0.892246 -1.22369,2.533114 -1.8434,3.301209 -0.46453,0.575748 -0.70245,0.965145 -0.78224,1.280269 -0.04,0.158097 -0.15901,0.356848 -0.28908,0.482918 -0.24301,0.235574 -0.25583,0.301721 -0.14656,0.755339 0.13431,0.557492 0.2635,0.855862 0.38769,0.895281 0.19607,0.06224 0.27245,0.287548 0.28493,0.840502 0.0152,0.669123 0.0571,0.793996 0.36218,1.078819 0.16903,0.15778 0.25251,0.291794 0.25251,0.405338 0,0.184964 0.0633,0.204902 0.55868,0.176154 0.22208,-0.01288 0.27272,0.0071 0.30183,0.118313 l 0.0349,0.133805 -20.83097,2.77e-4 c -11.457004,1.93e-4 -20.847961,-0.01661 -20.868752,-0.03744 -0.0461,-0.04607 0.150468,-0.249586 0.337963,-0.349948 0.10655,-0.05703 0.133866,-0.126747 0.122841,-0.313522 -0.0076,-0.132098 0.03109,-0.312894 0.08649,-0.401763 0.0554,-0.08886 0.134146,-0.413032 0.175091,-0.720369 0.04094,-0.307336 0.143275,-0.795567 0.227397,-1.084959 0.111312,-0.382924 0.133046,-0.542162 0.07982,-0.584902 -0.08227,-0.06603 -0.808936,0.01649 -0.882579,0.100224 -0.02564,0.02915 -0.166902,0.403295 -0.313866,0.83133 -0.146965,0.428044 -0.318007,0.914492 -0.380099,1.081008 -0.09701,0.260178 -0.100619,0.325692 -0.02564,0.465821 0.110888,0.207206 0.05832,0.342149 -0.187824,0.482243 -0.154054,0.08768 -0.195337,0.155584 -0.195656,0.321896 l -2.81e-4,0.210757 h -6.928284 c -6.846098,0 -6.929845,-0.0014 -7.045822,-0.129704 z m 40.380553,-0.336159 c -0.0421,-0.0422 -0.0953,-0.05806 -0.11824,-0.03521 -0.0229,0.02282 -0.0223,0.09143 9.2e-4,0.152441 0.0325,0.08456 0.0606,0.09292 0.11826,0.03521 0.0577,-0.05771 0.0575,-0.09395 -9.4e-4,-0.152443 z m 0.0208,-0.186676 c 0.0234,-0.03785 0.11268,-0.09551 0.19835,-0.128102 0.17243,-0.06556 0.211,-0.192167 0.0586,-0.192167 -0.0535,0 -0.0973,0.02918 -0.0973,0.06485 0,0.03567 -0.0712,0.06485 -0.15828,0.06485 -0.17081,0 -0.26282,0.09025 -0.19836,0.194563 0.0523,0.08455 0.14342,0.08269 0.197,-0.0041 z M 66.146479,43.298415 c 0.0201,-0.03251 -0.08029,-0.184441 -0.223133,-0.337615 -0.249906,-0.268036 -0.259663,-0.272239 -0.259663,-0.111772 0,0.296778 0.366361,0.637793 0.482796,0.449387 z m 30.071175,-2.27564 c 0.02423,-0.196183 0.07711,-0.750688 0.117504,-1.232229 0.04039,-0.481544 0.128382,-1.079824 0.19547,-1.329512 0.06705,-0.249687 0.287102,-1.198181 0.488907,-2.107767 0.313304,-1.412125 0.359929,-1.705902 0.31905,-2.010479 -0.02629,-0.196185 -0.08039,-0.663137 -0.12007,-1.037669 l -0.07221,-0.680974 -0.410347,0.01926 c -0.554402,0.02597 -1.541282,-0.08967 -2.235962,-0.261957 l -0.571247,-0.141677 -0.227202,0.240852 c -0.244664,0.25937 -0.355728,0.286217 -0.607522,0.146836 -0.139397,-0.07716 -0.185054,-0.07551 -0.333211,0.01199 -0.230336,0.136076 -0.367546,0.06987 -0.392506,-0.18938 -0.0136,-0.141885 -0.05878,-0.221204 -0.134071,-0.235462 -0.09212,-0.01744 -0.113411,0.02523 -0.113125,0.226456 5.08e-4,0.382968 0.113286,0.703408 0.362173,1.029505 0.205488,0.269248 0.223472,0.325612 0.185213,0.580749 -0.02845,0.189552 -0.0076,0.387251 0.0633,0.600601 0.28023,0.843783 0.236319,1.598181 -0.124783,2.143915 -0.252405,0.381456 -0.745597,0.689315 -0.745597,0.465416 0,-0.03567 -0.0603,-0.06486 -0.134062,-0.06486 -0.097,0 -0.124963,0.03139 -0.101131,0.113492 0.1845,0.635828 0.28205,1.37815 0.181118,1.37815 -0.03794,0 -0.149583,-0.105641 -0.248056,-0.234753 -0.306861,-0.40237 -0.237848,-0.131122 0.09468,0.372084 0.398167,0.602549 0.466842,0.732523 0.466842,0.883478 0,0.06675 0.07523,0.221892 0.167238,0.344749 0.09194,0.122858 0.236733,0.358775 0.321681,0.524258 0.216241,0.421251 0.33201,0.526173 0.48827,0.442536 0.09677,-0.0518 0.124964,-0.136408 0.124193,-0.37279 -9.39e-4,-0.366684 -0.04497,-0.447631 -0.258385,-0.477585 -0.249222,-0.035 -0.240732,-0.256374 0.02048,-0.533332 0.262583,-0.278455 0.340281,-0.292205 0.396025,-0.07006 0.03755,0.14978 0.06648,0.162677 0.309595,0.138363 0.301723,-0.03018 0.463807,-0.190339 0.421597,-0.416624 -0.03672,-0.197016 0.100693,-0.306596 0.270547,-0.215684 0.07127,0.03812 0.204436,0.06935 0.295947,0.06935 0.09147,0 0.226233,0.05986 0.299387,0.133024 0.08047,0.08048 0.179305,0.11833 0.250224,0.09582 0.171804,-0.05455 0.293048,0.116818 0.202446,0.286128 -0.0615,0.114873 -0.04855,0.144739 0.09024,0.207959 0.138577,0.06315 0.161171,0.115028 0.156271,0.358941 -0.0029,0.156824 0.01069,0.301588 0.0308,0.3217 0.0201,0.0201 0.01078,0.104252 -0.02066,0.187005 -0.03981,0.104798 -0.03109,0.172086 0.02874,0.221777 0.04724,0.03922 0.103729,0.160299 0.125479,0.269042 0.03193,0.159511 0.0679,0.193686 0.186143,0.176898 0.125376,-0.01777 0.152974,-0.07245 0.190623,-0.377517 z m 11.268826,0.100608 c 0.043,-0.05167 0.18504,-0.128447 0.31595,-0.17059 0.13089,-0.04214 0.27317,-0.10452 0.3162,-0.13861 0.10046,-0.07951 0.21812,-0.0083 0.17447,0.105396 -0.0264,0.06874 0.022,0.07705 0.2286,0.03927 0.46102,-0.08431 0.45898,-0.07836 0.45898,-1.341215 v -1.129843 l -0.66214,-0.742989 c -0.37768,-0.423801 -0.71197,-0.742987 -0.77816,-0.742987 -0.0637,0 -0.11601,0.0257 -0.11601,0.05712 0,0.03142 -0.0578,0.439341 -0.12829,0.906489 -0.1119,0.740391 -0.16576,0.923925 -0.42015,1.430546 -0.16051,0.319647 -0.33887,0.607498 -0.39633,0.639661 -0.0632,0.03533 -0.0958,0.120323 -0.0824,0.214753 0.0195,0.137336 0.0523,0.15446 0.27095,0.141339 0.13687,-0.0082 0.33201,0.02809 0.43369,0.08067 0.16321,0.08443 0.18057,0.12185 0.14839,0.32016 -0.0595,0.367122 0.0633,0.539215 0.23625,0.330831 z M 90.779976,37.196848 c -0.169361,-0.298961 -0.402626,-0.778469 -0.518367,-1.065572 -0.233679,-0.579628 -0.391754,-0.73634 -0.324562,-0.321759 0.05061,0.31226 0.601485,1.447897 0.892947,1.840835 0.336093,0.45311 0.305273,0.173674 -0.05006,-0.453504 z m 29.693684,-1.086855 c 0.27703,-0.570388 0.3262,-0.744558 0.50255,-1.77998 0.22423,-1.316448 0.2401,-1.595531 0.0938,-1.65162 -0.14886,-0.05712 -0.99164,0.292937 -1.0987,0.456372 -0.0768,0.117255 -0.0819,0.367009 -0.0314,1.533365 0.0332,0.76631 0.0612,1.546512 0.0623,1.733778 9.3e-4,0.228147 0.0286,0.340463 0.083,0.340416 0.0447,-3.7e-5 0.21925,-0.284586 0.38814,-0.632331 z M 82.38361,33.369971 c 0.209104,-0.652524 0.233576,-0.877409 0.114032,-1.048113 -0.05709,-0.08147 -0.10374,-0.204863 -0.10374,-0.274209 0,-0.06935 -0.01634,-0.109798 -0.03616,-0.08989 -0.01991,0.01989 -0.0633,0.367692 -0.09648,0.772846 -0.03315,0.405158 -0.07588,0.867979 -0.09486,1.028492 -0.04057,0.342042 0.01457,0.243429 0.217236,-0.389128 z m 27.1784,-0.320005 c 0.10474,-0.195748 0.0859,-0.909055 -0.0251,-0.95166 -0.0508,-0.01946 -0.39182,0.12009 -0.7581,0.310096 -0.6315,0.327582 -0.85543,0.509513 -0.75311,0.611855 0.0762,0.07622 0.50738,0.139817 1.00125,0.147691 0.40066,0.0064 0.4775,-0.01058 0.535,-0.117982 z m -0.0256,-1.852613 c 0.095,-0.145692 0.04,-0.55808 -0.0797,-0.597997 -0.0395,-0.01319 -0.16288,0.123677 -0.27393,0.304183 -0.29186,0.474388 -0.27087,0.624033 0.0698,0.497543 0.10959,-0.04072 0.2374,-0.13239 0.28391,-0.203729 z m -12.811531,-1.40434 c 0,-0.234105 -0.155052,-0.30529 -0.326649,-0.149976 -0.165013,0.149357 -0.160938,0.258722 0.01418,0.381417 0.18159,0.127202 0.312442,0.0303 0.312442,-0.231441 z m 12.078531,-0.557501 c 0.0783,-0.133762 0.32543,-0.511815 0.54899,-0.840121 0.39805,-0.58457 0.46795,-0.751793 0.34575,-0.827327 -0.15758,-0.0974 -0.68425,-0.953225 -0.95208,-1.547115 -0.16381,-0.363265 -0.35635,-0.711554 -0.42785,-0.773973 -0.15617,-0.13633 -0.6864,-0.157628 -0.73554,-0.02951 -0.0176,0.04617 0.10431,0.462055 0.27114,0.924172 0.3237,0.896605 0.49002,1.658467 0.43558,1.995341 -0.0184,0.113756 0.0128,0.450813 0.0696,0.749032 0.0566,0.29822 0.10291,0.553579 0.10291,0.567475 0,0.01385 0.0448,0.02525 0.0995,0.02525 0.0546,0 0.1636,-0.109442 0.242,-0.243205 z m -8.942508,-2.902229 c 0.0253,-0.06616 -0.003,-0.09727 -0.0903,-0.09727 -0.0702,0 -0.12765,0.04374 -0.12765,0.09727 0,0.0535 0.0406,0.09728 0.0903,0.09728 0.0497,0 0.10718,-0.04377 0.12763,-0.09728 z m 23.436808,-0.393892 c 0.31083,-0.234477 0.56514,-0.460661 0.56514,-0.502627 0,-0.138787 -0.37005,-0.05361 -0.9259,0.213139 -0.90593,0.434749 -1.06632,0.596662 -0.66283,0.669058 0.3856,0.06918 0.47042,0.03775 1.02359,-0.37957 z m -15.36253,-1.476889 c 0.17088,-0.177657 0.21011,-0.26291 0.17868,-0.38818 -0.0221,-0.0883 -0.0216,-0.338813 9.3e-4,-0.556718 0.0387,-0.369961 0.0666,-0.42363 0.42117,-0.810681 0.20885,-0.227972 0.37975,-0.457558 0.37975,-0.510206 0,-0.130073 -0.31695,-0.820773 -0.46433,-1.011879 -0.0656,-0.08507 -0.11928,-0.244538 -0.11928,-0.354376 0,-0.109844 -0.11384,-0.419636 -0.253,-0.688439 -0.13914,-0.2688 -0.28967,-0.612782 -0.3345,-0.764404 -0.0618,-0.208814 -0.16304,-0.338579 -0.41767,-0.535048 -0.18489,-0.142657 -0.38557,-0.259375 -0.44595,-0.259375 -0.0684,0 -0.1572,0.11059 -0.23574,0.293851 -0.0692,0.161615 -0.22027,0.416979 -0.33554,0.567476 -0.37894,0.494742 -1.44261,1.544829 -1.65763,1.636432 -0.31586,0.134596 -0.28369,0.32206 0.0705,0.411285 0.30877,0.07777 1.13271,0.640377 1.61414,1.102173 0.3567,0.342165 0.49684,0.614411 0.72573,1.409779 0.17715,0.615661 0.35003,0.851404 0.54603,0.744542 0.0591,-0.03225 0.206,-0.161029 0.32642,-0.286232 z M 88.38182,24.119343 c -0.03004,-0.541583 -0.327456,-1.170092 -0.481127,-1.016921 -0.05936,0.05918 -0.05822,0.199936 0.0057,0.616115 0.04516,0.296677 0.109556,0.592607 0.143102,0.657625 0.05485,0.106262 0.07531,0.108639 0.20209,0.02353 0.09584,-0.06433 0.137791,-0.154231 0.130786,-0.280349 z"
       id="path998"
       inkscape:connector-curvature="0"
       sodipodi:nodetypes="cscsccsccsccccccsccsscsccscscccsscscsccsscccscccscccscsscsccscscccccsscccscccssccccscscccccccccccccccccsccccscccccscccccccccscscssccccccscsccscccccccccsscscccccccccccccccssccccccccccscsscccccsccscscccccccssccccscssscscssccccsscsccccccscccccccccccccccccccccccsscccccccccsccccccsccccccccccscccccsccscsccsccscccsccccccsccccccccsccccsscccscccccscccssscccccsccccsccccscccccccscccssssccsccccccccccscscccccscccccccccsccssscsccccccccsccsccscccscscccsccsscccccccccccccscscccccssccsssccscsccccsscscccscccccccccccccccc" />
    <g
       aria-label="Horta da Cooperativa"
       transform="scale(0.99993481,1.0000652)"
       style="font-style:normal;font-variant:normal;font-weight:normal;font-stretch:normal;font-size:1.69936109px;line-height:125%;font-family:'Century Gothic';-inkscape-font-specification:'Century Gothic';letter-spacing:0px;word-spacing:0px;fill:#333333;fill-opacity:1;stroke:none;stroke-width:0.12745208px;stroke-linecap:butt;stroke-linejoin:miter;stroke-opacity:1"
       id="text1022">
      <path
         d="m 67.354602,9.2955163 q 0.272163,0.026553 0.272163,0.1360817 v 0.046467 q -0.411564,0.4746262 -0.411564,0.5907931 l 0.09293,0.04647 q -0.03319,0.64058 -0.136082,0.64058 0,0.31863 0.590794,0.31863 0.1394,0 0.321949,0.08962 l 0.182549,-0.08962 0.272163,0.04647 0.09293,-0.139401 v -0.04315 l -0.04647,-0.321949 q 0.06638,0 0.136081,-0.136082 -0.08961,-0.5177737 -0.08961,-0.7301938 0.17591,-0.2721633 0.225696,-0.2721633 h 0.09293 q 0.594112,0.102891 0.594112,0.2290154 v 0.043148 q -0.182548,0.2588868 -0.182548,0.4580308 0.06306,0 0.136082,0.136082 0,0.02323 -0.229016,0.272163 v 0.04647 q 0.275482,0.149358 0.275482,0.458031 0.08961,0.01328 0.08961,0.08961 l -0.31863,0.458031 0.136082,0.182548 v 0.04315 q 0,0.09293 -0.08962,0.09293 l 0.136082,0.229015 q -0.275483,0.295397 -0.275483,0.31863 0.365097,0.07302 0.365097,0.182549 -0.182548,0.192506 -0.182548,0.365097 0,0.272163 0.504498,0.272163 l 0.08961,0.139401 v 0.136082 q 0,0.05642 -0.411564,0.272163 l -0.408245,-0.04315 q -0.04979,0 -0.1394,0.04315 l -0.272164,-0.04315 h -0.458031 q -0.02323,0 -0.225696,-0.182548 -0.594113,0.272163 -1.324307,0.272163 l -0.229015,-0.04647 q -0.07634,0.04647 -0.229016,0.04647 -0.454712,-0.06306 -0.454712,-0.411564 v -0.04315 q 0.172592,-0.172591 0.547646,-0.321949 0.04647,-0.07966 0.04647,-0.182549 V 12.58139 q 0.136082,-0.179229 0.136082,-0.275482 -0.06638,0 -0.136082,-0.136082 0,-0.152677 0.04315,-0.229015 -0.04315,-0.17923 -0.04315,-0.31863 l 0.08962,-0.182549 q -0.04647,-0.136082 -0.08962,-0.136082 0.05974,-1.27452 0.136082,-1.6429366 -0.229016,-0.059743 -0.229016,-0.1360816 V 9.431598 q 0.0863,0 0.365097,-0.089615 0.149358,0.089615 0.275483,0.089615 h 0.04315 q 0.169272,-0.1360817 0.321949,-0.1360817 z m -0.04647,2.5556797 q 0,0.102891 0.04647,0.182549 -0.05974,0.225696 -0.139401,0.225696 0,-0.04315 -0.04315,-0.04315 l 0.04315,-0.09293 v -0.04647 h -0.136082 q -0.08961,0.0166 -0.08961,0.09293 0.109529,0.365097 0.501178,0.365097 0.136082,0 0.136082,0.08962 v 0.04647 q -0.454712,0.321949 -0.454712,0.365097 v 0.04647 q 0.564241,0.199144 0.730194,0.411564 0.0863,0.04315 0.136082,0.04315 0.547646,-0.398288 0.547646,-0.866276 0,-0.31863 0.08961,-0.411564 v -0.04315 l -0.08961,-0.139401 v -0.04315 l 0.04647,-0.229016 q -0.28544,-0.136081 -0.411564,-0.136081 -0.03983,0 -0.365097,0.04315 -0.03319,0 -0.275483,-0.04315 -0.272163,0.10621 -0.272163,0.182548 z"
         style="font-style:normal;font-variant:normal;font-weight:normal;font-stretch:normal;font-size:6.79744434px;font-family:X-Classified;-inkscape-font-specification:X-Classified;fill:#333333;stroke-width:0.12745208px"
         id="path817" />
      <path
         d="m 72.163926,10.563399 q 0.74679,0.109529 1.10193,0.368416 0.08298,0 0.122805,0.448074 0.245611,0 0.245611,0.285439 v 0.122806 q 0,0.03983 -0.04315,0.03983 0.122806,0.275482 0.122806,0.733513 -0.165954,0.05642 -0.242292,0.205782 l 0.03983,0.285439 -0.776661,0.487903 q -0.464669,0.325268 -0.57088,0.325268 v -0.03983 q -0.202462,0.122805 -0.285439,0.122805 l -0.28544,-0.08298 -0.07966,0.04315 q -1.224735,-0.657175 -1.224735,-1.593151 0.136082,-0.979124 0.487902,-1.221416 0.292078,-0.24561 1.387369,-0.53105 z"
         style="font-style:normal;font-variant:normal;font-weight:normal;font-stretch:normal;font-size:6.79744434px;font-family:X-Classified;-inkscape-font-specification:X-Classified;fill:#333333;stroke-width:0.12745208px"
         id="path819" />
      <path
         d="m 76.664578,10.543485 q 0.474626,0 0.879552,0.441435 l 0.07966,0.119487 -0.03983,0.278801 q 0.03983,0.159315 0.03983,0.28212 -0.46135,0.278802 -0.64058,0.278802 -0.358459,-0.238973 -0.358459,-0.438117 l 0.119487,-0.162634 v -0.07966 q 0,-0.07966 -0.07966,-0.07966 -0.401607,0.07966 -0.401607,0.199144 0.07966,0.09957 0.07966,0.162634 -0.03983,0.348502 -0.03983,0.398288 0.03983,0.07302 0.03983,0.162634 -0.202463,0.398288 -0.441436,0.398288 v 0.08298 q 0.109529,0.238973 0.162634,0.238973 0.01,-0.07966 0.07966,-0.07966 0.152677,0.119486 0.238972,0.119486 l 0.199144,-0.119486 h 0.122806 q 0.195825,0.292077 0.31863,0.401606 l -0.03983,0.07966 q 0.03983,0.0697 0.03983,0.159315 -0.272163,0.401607 -0.31863,0.401607 h -0.162634 q -0.09625,-0.07966 -0.159316,-0.07966 -0.04979,0 -0.401606,0.03983 0,-0.102891 -0.159315,-0.122805 -0.172592,0.0697 -1.082016,0.202463 0,0.05642 -0.119486,0.119486 h -0.119486 q -0.162634,-0.229016 -0.441436,-0.441436 0,-0.60075 0.839724,-0.60075 0,-0.05642 0.122805,-0.119487 0,-0.02323 -0.03983,-0.521093 0,-0.179229 0.03983,-1.201501 l -0.122805,-0.07966 q -0.448074,0.03983 -0.560922,0.159315 h -0.03983 Q 74.13877,11.077854 74.13877,10.865434 v -0.122806 q 0,-0.159315 1.002357,-0.159315 h 0.07966 q 0.385011,0.05311 0.600751,0.282121 h 0.03983 q 0.219059,-0.182549 0.803214,-0.321949 z m -2.283517,0.720237 0.03983,0.07966 -0.08298,0.03983 -0.03983,-0.07966 z m 1.038868,0.321949 v 0.238973 q 0.122805,-0.03983 0.122805,-0.238973 z m 1.161672,0.481264 h 0.04315 l 0.159315,0.07966 q 0.0697,-0.03983 0.159315,-0.03983 l 0.07966,0.119486 v 0.07966 q 0,0.06306 -0.159315,0.159315 -0.03651,0 -0.159315,-0.278801 h -0.122806 z m -0.03983,0.438117 h 0.122805 v 0.08298 h -0.122805 z m -2.120883,0.882871 v 0.03983 h 0.199144 v -0.03983 z"
         style="font-style:normal;font-variant:normal;font-weight:normal;font-stretch:normal;font-size:6.79744434px;font-family:X-Classified;-inkscape-font-specification:X-Classified;fill:#333333;stroke-width:0.12745208px"
         id="path821" />
      <path
         d="m 79.256767,9.2125397 h 0.175911 q 0.04315,0 0.265525,0.308673 v 0.046467 q 0,0.063062 -0.132763,0.1327626 0.04647,0.2854396 0.222378,0.5310508 -0.04315,0.08629 -0.04315,0.132762 l 0.0863,0.04315 q 0.192505,0 0.35514,-0.08962 0.172591,0.08962 0.487902,0.08962 h 0.222377 q 0.04315,0 0.265526,0.265525 0,0.398288 -0.753428,0.398288 0,-0.08962 -0.08962,-0.08962 l -0.04315,0.08962 v 0.08962 l 0.08961,0.132762 v 0.04315 q 0,0.229016 -0.136082,0.265525 h -0.04315 q -0.08961,0 -0.08961,-0.08962 v -0.265525 q -0.0863,0 -0.0863,-0.04315 -0.265525,0.05974 -0.265525,0.132763 v 0.132763 q 0.219058,0.03319 0.219058,0.132762 v 0.04647 q 0,0.09957 -0.04315,0.175911 0,0.06638 0.265526,0.222377 0,0.0863 -0.08961,0.0863 h -0.04315 l -0.17591,-0.132763 -0.04647,0.08962 v 0.17591 q 0,0.08962 0.35514,0.132763 l -0.04315,0.08961 v 0.08962 h 0.17591 q 0.341864,-0.35514 0.577517,-0.35514 0.351821,0.381693 0.351821,0.531051 -0.04315,0.132762 -0.08629,0.132762 l 0.04315,0.222378 -0.04315,0.17591 q 0.04315,0.07634 0.04315,0.17591 l -0.265525,0.132763 0.04315,0.08962 q 0,0.08961 -0.0863,0.08961 h -0.04647 q -0.03983,0 -0.35182,-0.08961 -0.06306,0.146039 -0.35514,0.265525 -0.03319,0 -0.265525,-0.04315 -0.03319,0 -0.265526,0.04315 -0.311992,-0.04315 -0.663813,-0.265525 l 0.04315,-0.222378 q 0,-0.08298 -0.222377,-0.398287 0.08961,0 0.132763,-1.370774 -0.04315,-0.0863 -0.04315,-0.132763 l 0.08961,-0.179229 q -0.132762,-0.04315 -0.132762,-0.265525 v -0.132763 l 0.0863,-0.132762 -0.308673,-0.04315 q -0.189187,0.07634 -0.398288,0.265525 -0.265525,-0.175911 -0.265525,-0.35514 0,-0.252249 0.487902,-0.308673 h 0.351821 l 0.179229,-0.132763 -0.04647,-0.08961 q 0.122805,-0.9724863 0.355139,-0.9724863 z m -0.08961,1.5500033 0.132762,0.0863 h 0.04647 v -0.0863 q 0,-0.08962 -0.08962,-0.08962 -0.08961,0.01328 -0.08961,0.08962 z m 0.796575,0.219058 v 0.04647 h 0.08961 v -0.04647 z m -0.04315,1.639618 q 0,0.06306 0.132763,0.132763 0.08961,0 0.08961,-0.08962 v -0.04315 q -0.08961,0 -0.08961,-0.04315 -0.0863,0.04315 -0.132763,0.04315 z"
         style="font-style:normal;font-variant:normal;font-weight:normal;font-stretch:normal;font-size:6.79744434px;font-family:X-Classified;-inkscape-font-specification:X-Classified;fill:#333333;stroke-width:0.12745208px"
         id="path823" />
      <path
         d="m 83.813843,10.397446 h 0.03983 q 0.07966,0.01328 0.07966,0.07966 0,0.09293 -0.199144,0.119487 l -0.03983,-0.07966 q 0,-0.05642 0.119486,-0.119486 z m 0.199144,0.199144 h 0.07966 v 0.07966 h -0.07966 z m -0.876233,0.03983 q 0.81649,0.202463 0.876233,0.398288 l 0.278802,-0.03983 h 0.03983 q 0.05974,0 0.119486,0.122806 0,0.119486 -0.159315,0.119486 v 0.07966 q 0.01328,0.07966 0.07966,0.07966 -0.07966,0.434798 -0.07966,0.637261 0.24893,0.07966 0.28212,0.199144 v 0.03983 l -0.242291,0.159315 v 0.03983 q 0.01328,0.07966 0.07966,0.07966 h 0.162634 q 0.152677,-0.238973 0.199144,-0.238973 h 0.07966 l 0.159315,0.119486 0.07966,-0.03983 0.03983,0.07966 q 0,0.07966 -0.07966,0.07966 h -0.119487 q 0,0.03983 -0.03983,0.03983 0.149357,0.720238 0.557602,0.720238 l 0.03983,0.07966 v 0.03983 q 0,0.07966 -0.119486,0.07966 -0.175911,0 -0.358459,-0.07966 -0.05974,0.358459 -0.159315,0.358459 h -0.441436 q -0.05642,0 -0.557603,-0.199144 -0.195825,0.0531 -0.517774,0.31863 -0.159315,0 -0.159315,0.03983 -0.703642,0 -1.038867,-0.398288 -0.175911,0 -0.438117,-0.517774 h 0.03983 q -0.07966,-0.146039 -0.07966,-0.321949 v -0.159315 q 0.358459,-0.477946 0.597431,-0.477946 0.119487,0 0.401607,-0.07966 h 0.159315 l 0.199144,0.03983 q 0.01991,-0.159315 0.119486,-0.159315 0.129444,0.07966 0.238973,0.07966 0.06306,0 0.159315,-0.159315 -0.03983,0 -0.03983,-0.03983 l -0.199144,0.03983 h -0.119486 l -0.159315,-0.119486 q 0,0.07966 -0.119486,0.07966 l -0.238973,-0.03983 q -0.159315,0.03983 -0.28212,0.03983 -0.401607,-0.155996 -0.438117,-0.278801 v -0.119487 q 0,-0.288758 0.680408,-0.680408 0.338545,-0.03983 0.517774,-0.03983 z m -0.31863,0.358459 h 0.159315 q 0,-0.07966 -0.07966,-0.07966 -0.07966,0.01328 -0.07966,0.07966 z m 1.755785,0.242292 h 0.03983 q 0.07966,0.01 0.07966,0.07966 l -0.07966,0.03983 h -0.03983 z m 0.119487,0.358459 h 0.03983 q 0.05974,0 0.159316,0.159315 v 0.07966 q -0.10953,0.238972 -0.159316,0.238972 l -0.03983,-0.07966 q 0.07966,-0.129444 0.07966,-0.199144 -0.159315,-0.05974 -0.159315,-0.119486 0.01,-0.07966 0.07966,-0.07966 z m -0.119487,1.155035 q 0,0.04315 -0.03983,0.119486 l 0.07966,0.03983 q 0.07966,0 0.07966,-0.07966 0,-0.07966 -0.07966,-0.07966 z"
         style="font-style:normal;font-variant:normal;font-weight:normal;font-stretch:normal;font-size:6.79744434px;font-family:X-Classified;-inkscape-font-specification:X-Classified;fill:#333333;stroke-width:0.12745208px"
         id="path825" />
      <path
         d="m 90.880132,9.3552595 q 0.338544,0.056424 0.338544,0.209101 -0.04315,0.3020349 -0.04315,0.3385446 0.08298,0.013276 0.08298,0.082977 v 0.086295 l -0.08298,0.295397 q 0.04315,0.169272 0.335226,0.378374 v 0.08298 h -0.03983 l -0.21242,-0.03983 q -0.08298,0.136082 -0.08298,0.252249 0,0.08962 0.378374,0.169273 v 0.03983 q -0.378374,0 -0.378374,0.295397 v 0.04315 l 0.08298,0.126124 v 0.04315 q 0,0.05974 -0.126125,0.126125 0.0863,0.136081 0.0863,0.209101 l -0.04315,0.21242 0.169273,0.126124 h 0.252249 v 0.08298 l -0.169273,0.169272 v 0.04315 h 0.21242 v 0.08298 q 0,0.05974 -0.129443,0.126124 -0.126125,-0.03983 -0.126125,-0.08298 -0.136081,0.04315 -0.165953,0.169272 0.371735,0.05311 0.547646,0.209101 0.01991,-0.169272 0.126124,-0.169272 h 0.03983 q 0.0863,0.01328 0.0863,0.08629 -0.146039,0.136082 -0.252249,0.421522 -0.252249,0.02323 -0.547646,0.378373 l -0.507817,-0.169272 q -0.07302,-0.03983 -0.169272,-0.03983 h -0.67377 l -0.169272,0.126124 q -0.926019,0 -0.926019,-0.381692 -0.590794,-0.348502 -0.590794,-1.008996 -0.03983,0 -0.08298,-0.633941 0.262207,-0.896148 0.969167,-1.304393 0.315311,0 0.504498,-0.129443 l 0.507817,0.04315 q 0.262206,0 0.335226,-0.4646692 -0.09293,-0.1327626 -0.756747,-0.252249 l -0.04315,-0.082977 q 0.02655,-0.2522489 0.126124,-0.2522489 h 0.969167 q 0.09625,0 0.169273,-0.043148 z m 0.504497,0.209101 h 0.126125 v 0.086296 h -0.126125 z m -1.642937,1.6462565 -0.04315,0.08298 v 0.04315 q 0.126124,0 0.21242,0.169272 -0.04315,0.07302 -0.04315,0.165954 0.03651,0 0.21242,-0.252249 -0.07966,-0.209101 -0.338545,-0.209101 z m 1.769062,0.843042 h 0.0863 v 0.03983 h -0.0863 z"
         style="font-style:normal;font-variant:normal;font-weight:normal;font-stretch:normal;font-size:6.79744434px;font-family:X-Classified;-inkscape-font-specification:X-Classified;fill:#333333;stroke-width:0.12745208px"
         id="path827" />
      <path
         d="m 94.089668,10.397446 h 0.03983 q 0.07966,0.01328 0.07966,0.07966 0,0.09293 -0.199144,0.119487 l -0.03983,-0.07966 q 0,-0.05642 0.119486,-0.119486 z m 0.199144,0.199144 h 0.07966 v 0.07966 h -0.07966 z m -0.876233,0.03983 q 0.81649,0.202463 0.876233,0.398288 l 0.278801,-0.03983 h 0.03983 q 0.05974,0 0.119486,0.122806 0,0.119486 -0.159315,0.119486 v 0.07966 q 0.01328,0.07966 0.07966,0.07966 -0.07966,0.434798 -0.07966,0.637261 0.24893,0.07966 0.282121,0.199144 v 0.03983 l -0.242292,0.159315 v 0.03983 q 0.01328,0.07966 0.07966,0.07966 h 0.162634 q 0.152677,-0.238973 0.199144,-0.238973 h 0.07966 l 0.159315,0.119486 0.07966,-0.03983 0.03983,0.07966 q 0,0.07966 -0.07966,0.07966 h -0.119486 q 0,0.03983 -0.03983,0.03983 0.149358,0.720238 0.557603,0.720238 l 0.03983,0.07966 v 0.03983 q 0,0.07966 -0.119487,0.07966 -0.17591,0 -0.358459,-0.07966 -0.05974,0.358459 -0.159315,0.358459 H 94.6871 q -0.05642,0 -0.557603,-0.199144 -0.195825,0.0531 -0.517774,0.31863 -0.159315,0 -0.159315,0.03983 -0.703642,0 -1.038868,-0.398288 -0.17591,0 -0.438116,-0.517774 h 0.03983 q -0.07966,-0.146039 -0.07966,-0.321949 v -0.159315 q 0.358459,-0.477946 0.597432,-0.477946 0.119486,0 0.401607,-0.07966 h 0.159315 l 0.199144,0.03983 q 0.01991,-0.159315 0.119486,-0.159315 0.129443,0.07966 0.238973,0.07966 0.06306,0 0.159315,-0.159315 -0.03983,0 -0.03983,-0.03983 l -0.199144,0.03983 h -0.119486 l -0.159315,-0.119486 q 0,0.07966 -0.119487,0.07966 l -0.238972,-0.03983 q -0.159316,0.03983 -0.282121,0.03983 -0.401607,-0.155996 -0.438116,-0.278801 v -0.119487 q 0,-0.288758 0.680408,-0.680408 0.338544,-0.03983 0.517774,-0.03983 z m -0.31863,0.358459 h 0.159315 q 0,-0.07966 -0.07966,-0.07966 -0.07966,0.01328 -0.07966,0.07966 z m 1.755785,0.242292 h 0.03983 q 0.07966,0.01 0.07966,0.07966 l -0.07966,0.03983 h -0.03983 z m 0.119486,0.358459 h 0.03983 q 0.05974,0 0.159315,0.159315 v 0.07966 q -0.109529,0.238972 -0.159315,0.238972 l -0.03983,-0.07966 q 0.07966,-0.129444 0.07966,-0.199144 -0.159315,-0.05974 -0.159315,-0.119486 0.01,-0.07966 0.07966,-0.07966 z m -0.119486,1.155035 q 0,0.04315 -0.03983,0.119486 l 0.07966,0.03983 q 0.07966,0 0.07966,-0.07966 0,-0.07966 -0.07966,-0.07966 z"
         style="font-style:normal;font-variant:normal;font-weight:normal;font-stretch:normal;font-size:6.79744434px;font-family:X-Classified;-inkscape-font-specification:X-Classified;fill:#333333;stroke-width:0.12745208px"
         id="path829" />
      <path
         d="m 101.36506,9.1926253 0.13608,0.1825486 q 0,0.0697 -0.18255,0.1792295 h -0.0896 v -0.089615 q -0.11948,0 -0.77002,0.1792295 l -0.0465,-0.089615 v -0.043148 q 0,-0.073019 0.18255,-0.1825485 0.0996,0 0.17923,0.046467 0.2091,-0.1493579 0.5908,-0.1825486 z m -1.496902,0.7235561 h 0.04647 q 0.497855,0.1360816 0.497855,0.2290156 -0.0863,0.04315 -0.13608,0.04315 -0.13608,-0.04315 -0.13608,-0.08962 l -0.0896,0.04647 q -0.235657,0 -0.272167,-0.136082 0.01328,-0.092934 0.08961,-0.092934 z m -1.085334,0.2721636 h 0.225696 q 0.182549,0 0.182549,0.544326 v 0.136082 q 0,0.122805 -0.09293,0.272163 l 0.04647,0.272164 q -0.06638,0 -0.136082,0.179229 0.06638,0 0.136082,0.136082 v 0.09293 l -0.08962,0.136082 v 0.132763 q 0.175911,0.56756 0.541008,0.770023 0.03651,0.182548 0.09293,0.182548 0.560921,0.04647 0.587471,0.04647 0.0896,0 0.31863,-0.408245 0.0564,0 0.58748,-0.680408 h 0.22569 q 0.13609,0.04647 0.13609,0.272163 l -0.2257,0.723556 0.13608,0.09293 h 0.13608 l 0.13608,-0.09293 h 0.0896 q 0.10289,0 0.13608,0.229016 l -0.17923,0.136081 h -0.27216 l -0.22902,-0.182548 h -0.0431 q -0.083,0 -0.13608,0.408245 -0.0896,0.01328 -0.0896,0.08962 0.22569,0.01328 0.22569,0.136081 0,0.06638 -0.13608,0.136082 -0.19914,-0.225696 -0.27216,-0.225696 -0.1394,0 -0.859638,0.04315 v -0.04315 l -0.09293,0.04315 h -0.08961 q -0.680408,-0.142719 -0.680408,-0.497859 -0.222377,0 -0.541007,-0.770023 v -0.04315 q 0.04315,-0.08962 0.04315,-0.136082 -0.112848,0 -0.179229,-0.49786 -0.04647,0 -0.04647,-0.04647 v -0.04647 q 0,-0.09957 0.04647,-0.17923 -0.04647,-0.07966 -0.04647,-0.182548 0.10621,-0.770023 0.182549,-0.770023 0.04647,0 0.136081,-0.04647 l -0.04647,-0.225697 q 0,-0.06306 0.136082,-0.136081 z m 2.356536,0 h 0.13276 q 0.10289,0.01328 0.27217,0.408245 0,0.454711 -0.17923,0.454711 -0.21242,0 -0.45472,-0.365097 v -0.08961 q 0.15932,-0.408245 0.22902,-0.408245 z m -1.450431,0.454712 q 0.08961,0.01328 0.08961,0.08961 l -0.04647,0.08962 0.09293,0.04647 q 0.07302,-0.182549 0.31531,-0.182549 v 0.04647 q -0.12612,0.225697 -0.361777,0.225697 v 0.136081 q -0.08961,0.32195 -0.08961,0.361778 l 0.08961,0.136082 q 0,0.09293 -0.08961,0.09293 h -0.09293 q -0.08962,0 -0.08962,-0.09293 0.04647,-0.136082 0.08962,-0.136082 -0.132763,-0.225696 -0.132763,-0.361778 0,-0.0697 0.17923,-0.179229 l -0.04647,-0.09293 v -0.08962 q 0.01659,-0.08961 0.09293,-0.08961 z m 0.272163,1.131801 q 0.08962,0.01328 0.08962,0.08961 v 0.225697 l -0.318634,0.182548 q 0.01991,0.126125 0.408244,0.454712 l 0.0465,0.08961 q 0,0.06306 -0.13608,0.136082 h -0.182552 q -0.172591,-0.318631 -0.225696,-0.318631 l -0.08961,-0.136081 0.04315,-0.315311 q -0.06306,0 -0.132763,-0.136082 v -0.04647 q 0,-0.07966 0.404926,-0.136082 0.0166,-0.08961 0.09293,-0.08961 z m 0.723558,0.04647 h 0.0465 v 0.08962 h -0.0465 z"
         style="font-style:normal;font-variant:normal;font-weight:normal;font-stretch:normal;font-size:6.79744434px;font-family:X-Classified;-inkscape-font-specification:X-Classified;fill:#333333;stroke-width:0.12745208px"
         id="path831" />
      <path
         d="m 103.80125,10.563399 q 0.74679,0.109529 1.10193,0.368416 0.083,0 0.12281,0.448074 0.24561,0 0.24561,0.285439 v 0.122806 q 0,0.03983 -0.0432,0.03983 0.1228,0.275482 0.1228,0.733513 -0.16595,0.05642 -0.24229,0.205782 l 0.0398,0.285439 -0.77666,0.487903 q -0.46467,0.325268 -0.57088,0.325268 v -0.03983 q -0.20246,0.122805 -0.28544,0.122805 l -0.28544,-0.08298 -0.0797,0.04315 q -1.22473,-0.657175 -1.22473,-1.593151 0.13608,-0.979124 0.4879,-1.221416 0.29208,-0.24561 1.38737,-0.53105 z"
         style="font-style:normal;font-variant:normal;font-weight:normal;font-stretch:normal;font-size:6.79744434px;font-family:X-Classified;-inkscape-font-specification:X-Classified;fill:#333333;stroke-width:0.12745208px"
         id="path833" />
      <path
         d="m 107.57171,10.563399 q 0.74679,0.109529 1.10193,0.368416 0.083,0 0.1228,0.448074 0.24561,0 0.24561,0.285439 v 0.122806 q 0,0.03983 -0.0431,0.03983 0.1228,0.275482 0.1228,0.733513 -0.16595,0.05642 -0.24229,0.205782 l 0.0398,0.285439 -0.77666,0.487903 q -0.46467,0.325268 -0.57088,0.325268 v -0.03983 q -0.20246,0.122805 -0.28544,0.122805 l -0.28544,-0.08298 -0.0797,0.04315 q -1.22473,-0.657175 -1.22473,-1.593151 0.13608,-0.979124 0.4879,-1.221416 0.29208,-0.24561 1.38737,-0.53105 z"
         style="font-style:normal;font-variant:normal;font-weight:normal;font-stretch:normal;font-size:6.79744434px;font-family:X-Classified;-inkscape-font-specification:X-Classified;fill:#333333;stroke-width:0.12745208px"
         id="path835" />
      <path
         d="m 111.50812,10.546804 q 0.54765,0 0.98576,0.368416 0.13608,0 0.20247,0.03983 l -0.0398,0.205782 0.36841,0.574198 v 0.574198 q 0,0.09293 -0.0398,0.162634 0.0797,0.136082 0.0797,0.205782 l -0.0797,0.165953 0.0398,0.202463 -0.85963,0.617346 q -0.22238,0 -0.28876,0.162635 l 0.0431,0.205782 q -0.20246,0.10621 -0.20578,0.162634 l 0.40825,0.288758 q 0,0.182549 -0.81981,0.531051 -0.17259,0 -0.44808,0.08298 -0.17591,0 -0.45139,-0.205782 h -0.16595 q -0.10953,0 -0.24561,0.08298 -0.40825,-0.07302 -0.40825,-0.165953 v -0.408245 q 0,-0.08962 0.32527,-0.165954 v -0.03983 l -0.0398,-0.08298 0.083,-0.03983 q 0.13276,0.08298 0.24561,0.08298 h 0.0398 l 0.083,-0.368416 q -0.0631,0 -0.16264,-0.165953 l 0.0398,-0.245611 q -0.0398,-0.222378 -0.0398,-0.368416 l 0.0398,-0.08298 q -0.0398,-0.0697 -0.0398,-0.162634 0,-0.122806 0.0797,-0.288759 l -0.12281,-0.07966 q 0.0266,-0.368417 0.083,-0.368417 l -0.083,-0.205782 q 0.0431,-0.07302 0.0431,-0.165953 l -0.0431,-0.162634 q 0.0332,-0.162634 0.083,-0.162634 -0.0564,-0.169272 -0.20578,-0.245611 h -0.36842 q -0.1228,-0.04315 -0.1228,-0.24893 0,-0.05642 0.28544,-0.245611 0.11284,0 1.06873,0.122806 0.27549,0 0.65386,-0.162634 z m -0.20578,0.408245 q 0,0.04647 -0.0398,0.126124 l 0.083,0.162634 q 0,0.09625 -0.4514,0.368416 l 0.083,0.162635 q 0,0.07302 -0.16595,0.697003 l 0.083,0.04315 0.20579,-0.04315 q 0,0.04315 0.0398,0.04315 l -0.0398,0.07966 v 0.08298 l 0.20246,0.245611 q 0.18919,-0.07966 0.20578,-0.162634 v -0.205782 q -0.28544,-0.182549 -0.28544,-0.328588 0.0797,0 0.0797,-0.07966 v -0.04315 l -0.0398,-0.07966 q 0.0797,-0.04315 0.12281,-0.04315 0.16263,0.06306 0.16263,0.122805 l -0.0398,0.08298 q 0.083,0.132762 0.083,0.205782 -0.0431,0.07966 -0.0431,0.122805 0.10621,0 0.16595,0.368416 h 0.12281 q 0.15599,-0.09625 0.40824,-0.657175 0,-0.04315 -0.0398,-0.122805 0.0398,-0.288759 0.0398,-0.491222 l -0.0398,-0.08298 q 0.0398,-0.0697 0.0398,-0.162634 v -0.08298 q 0,-0.04979 -0.44807,-0.162634 -0.073,0.03983 -0.16595,0.03983 -0.0398,-0.06638 -0.0398,-0.205782 z m -0.0398,2.748185 v 0.03983 q 0.14272,0.245611 0.36842,0.245611 h 0.0431 l -0.32858,-0.28544 z m -0.40825,1.06542 -0.0431,0.08298 h 0.1228 q 0,-0.08298 -0.0797,-0.08298 z"
         style="font-style:normal;font-variant:normal;font-weight:normal;font-stretch:normal;font-size:6.79744434px;font-family:X-Classified;-inkscape-font-specification:X-Classified;fill:#333333;stroke-width:0.12745208px"
         id="path837" />
      <path
         d="m 114.70438,10.52357 h 0.0797 l 0.2788,0.07966 q 0.28544,-0.03983 0.31863,-0.03983 0.59743,0.182549 0.59743,0.358459 0.47794,0.60407 0.47794,0.63726 v 0.07966 q -0.0797,0.28212 -0.0797,0.31863 0.0564,0 0.11948,0.119486 v 0.07966 q 0,0.03983 -0.39828,0.31863 0.39828,0.451393 0.39828,0.517774 h 0.0398 q 0.01,-0.199144 0.11949,-0.199144 h 0.0797 q 0.0796,0.01328 0.0796,0.07966 v 0.278801 q 0,0.07966 -0.0796,0.07966 h -0.0398 l -0.15932,-0.119486 q -0.10289,0 -0.15931,0.358459 h -0.0797 l -0.11949,-0.07966 h -0.0398 l 0.0398,0.199144 q -0.79657,0.159315 -0.79657,0.358459 h -0.19915 q -0.16263,-0.238973 -0.2788,-0.238973 l -0.0398,0.07966 v 0.03983 l 0.0398,0.07966 -0.0797,0.03983 -0.15931,-0.199144 -0.23897,0.03983 q -0.0797,0 -0.0797,-0.07966 0.0398,-0.0697 0.0398,-0.159315 -0.79658,-0.302035 -0.79658,-0.677089 -0.19914,0 -0.19914,-0.995719 0.0797,-0.587475 0.31863,-0.756747 0.33522,-0.557603 0.87623,-0.557603 0,-0.03983 0.11949,-0.03983 z m -0.31863,0.438117 v 0.03983 h 0.0797 v -0.03983 z m -0.31863,0.31863 h 0.0797 q 0.0631,0 0.15931,-0.159315 v -0.03983 h -0.0398 q -0.0531,0 -0.19914,0.199144 z m 0.71692,0.119486 v 0.03983 q 0.0133,0.07966 0.0797,0.07966 h 0.19915 q 0.0797,0 0.0797,-0.07966 v -0.03983 q -0.14935,0 -0.23897,-0.07966 h -0.0398 q -0.0797,0.01328 -0.0797,0.07966 z m 0.35845,0.238973 v 0.07966 h 0.11949 v -0.07966 z m -0.0797,0.756747 v 0.03983 q 0.0896,0 0.15931,0.03983 l 0.0398,-0.07966 q 0,-0.07966 -0.0797,-0.07966 h -0.0398 q -0.0797,0.01328 -0.0797,0.07966 z m 1.91178,0.31863 0.0398,0.07966 -0.0797,0.03983 -0.0398,-0.07966 z"
         style="font-style:normal;font-variant:normal;font-weight:normal;font-stretch:normal;font-size:6.79744434px;font-family:X-Classified;-inkscape-font-specification:X-Classified;fill:#333333;stroke-width:0.12745208px"
         id="path839" />
      <path
         d="m 119.42741,10.543485 q 0.47462,0 0.87955,0.441435 l 0.0797,0.119487 -0.0398,0.278801 q 0.0398,0.159315 0.0398,0.28212 -0.46135,0.278802 -0.64058,0.278802 -0.35846,-0.238973 -0.35846,-0.438117 l 0.11948,-0.162634 v -0.07966 q 0,-0.07966 -0.0797,-0.07966 -0.40161,0.07966 -0.40161,0.199144 0.0797,0.09957 0.0797,0.162634 -0.0398,0.348502 -0.0398,0.398288 0.0398,0.07302 0.0398,0.162634 -0.20247,0.398288 -0.44144,0.398288 v 0.08298 q 0.10953,0.238973 0.16264,0.238973 0.01,-0.07966 0.0797,-0.07966 0.15268,0.119486 0.23898,0.119486 l 0.19914,-0.119486 h 0.12281 q 0.19582,0.292077 0.31863,0.401606 l -0.0398,0.07966 q 0.0398,0.0697 0.0398,0.159315 -0.27217,0.401607 -0.31863,0.401607 h -0.16264 q -0.0962,-0.07966 -0.15931,-0.07966 -0.0498,0 -0.40161,0.03983 0,-0.102891 -0.15932,-0.122805 -0.17259,0.0697 -1.08201,0.202463 0,0.05642 -0.11949,0.119486 h -0.11948 q -0.16264,-0.229016 -0.44144,-0.441436 0,-0.60075 0.83972,-0.60075 0,-0.05642 0.12281,-0.119487 0,-0.02323 -0.0398,-0.521093 0,-0.179229 0.0398,-1.201501 l -0.12281,-0.07966 q -0.44807,0.03983 -0.56092,0.159315 h -0.0398 q -0.15931,-0.06638 -0.15931,-0.278801 v -0.122806 q 0,-0.159315 1.00236,-0.159315 h 0.0797 q 0.38502,0.05311 0.60075,0.282121 h 0.0398 q 0.21906,-0.182549 0.80322,-0.321949 z m -2.28352,0.720237 0.0398,0.07966 -0.083,0.03983 -0.0398,-0.07966 z m 1.03887,0.321949 v 0.238973 q 0.1228,-0.03983 0.1228,-0.238973 z m 1.16167,0.481264 h 0.0431 l 0.15931,0.07966 q 0.0697,-0.03983 0.15932,-0.03983 l 0.0797,0.119486 v 0.07966 q 0,0.06306 -0.15932,0.159315 -0.0365,0 -0.15931,-0.278801 h -0.12281 z m -0.0398,0.438117 h 0.12281 v 0.08298 h -0.12281 z m -2.12088,0.882871 v 0.03983 h 0.19914 v -0.03983 z"
         style="font-style:normal;font-variant:normal;font-weight:normal;font-stretch:normal;font-size:6.79744434px;font-family:X-Classified;-inkscape-font-specification:X-Classified;fill:#333333;stroke-width:0.12745208px"
         id="path841" />
      <path
         d="m 122.84604,10.397446 h 0.0398 q 0.0797,0.01328 0.0797,0.07966 0,0.09293 -0.19915,0.119487 l -0.0398,-0.07966 q 0,-0.05642 0.11948,-0.119486 z m 0.19915,0.199144 h 0.0797 v 0.07966 h -0.0797 z m -0.87624,0.03983 q 0.81649,0.202463 0.87624,0.398288 l 0.2788,-0.03983 h 0.0398 q 0.0597,0 0.11948,0.122806 0,0.119486 -0.15931,0.119486 v 0.07966 q 0.0133,0.07966 0.0797,0.07966 -0.0797,0.434798 -0.0797,0.637261 0.24893,0.07966 0.28212,0.199144 v 0.03983 l -0.24229,0.159315 v 0.03983 q 0.0133,0.07966 0.0797,0.07966 h 0.16264 q 0.15268,-0.238973 0.19914,-0.238973 h 0.0797 l 0.15931,0.119486 0.0797,-0.03983 0.0398,0.07966 q 0,0.07966 -0.0797,0.07966 h -0.11948 q 0,0.03983 -0.0398,0.03983 0.14936,0.720238 0.5576,0.720238 l 0.0398,0.07966 v 0.03983 q 0,0.07966 -0.11949,0.07966 -0.17591,0 -0.35846,-0.07966 -0.0597,0.358459 -0.15931,0.358459 h -0.44144 q -0.0564,0 -0.5576,-0.199144 -0.19582,0.0531 -0.51777,0.31863 -0.15932,0 -0.15932,0.03983 -0.70364,0 -1.03887,-0.398288 -0.17591,0 -0.43811,-0.517774 h 0.0398 q -0.0797,-0.146039 -0.0797,-0.321949 v -0.159315 q 0.35846,-0.477946 0.59743,-0.477946 0.11949,0 0.40161,-0.07966 h 0.15931 l 0.19915,0.03983 q 0.0199,-0.159315 0.11948,-0.159315 0.12945,0.07966 0.23898,0.07966 0.0631,0 0.15931,-0.159315 -0.0398,0 -0.0398,-0.03983 l -0.19914,0.03983 h -0.11949 l -0.15931,-0.119486 q 0,0.07966 -0.11949,0.07966 l -0.23897,-0.03983 q -0.15932,0.03983 -0.28212,0.03983 -0.40161,-0.155996 -0.43812,-0.278801 v -0.119487 q 0,-0.288758 0.68041,-0.680408 0.33854,-0.03983 0.51777,-0.03983 z m -0.31863,0.358459 h 0.15932 q 0,-0.07966 -0.0797,-0.07966 -0.0797,0.01328 -0.0797,0.07966 z m 1.75579,0.242292 h 0.0398 q 0.0797,0.01 0.0797,0.07966 l -0.0797,0.03983 h -0.0398 z m 0.11948,0.358459 h 0.0398 q 0.0597,0 0.15932,0.159315 v 0.07966 q -0.10953,0.238972 -0.15932,0.238972 l -0.0398,-0.07966 q 0.0797,-0.129444 0.0797,-0.199144 -0.15931,-0.05974 -0.15931,-0.119486 0.01,-0.07966 0.0797,-0.07966 z m -0.11948,1.155035 q 0,0.04315 -0.0398,0.119486 l 0.0797,0.03983 q 0.0797,0 0.0797,-0.07966 0,-0.07966 -0.0797,-0.07966 z"
         style="font-style:normal;font-variant:normal;font-weight:normal;font-stretch:normal;font-size:6.79744434px;font-family:X-Classified;-inkscape-font-specification:X-Classified;fill:#333333;stroke-width:0.12745208px"
         id="path843" />
      <path
         d="m 126.13524,9.2125397 h 0.17591 q 0.0431,0 0.26552,0.308673 v 0.046467 q 0,0.063062 -0.13276,0.1327626 0.0465,0.2854396 0.22238,0.5310508 -0.0431,0.08629 -0.0431,0.132762 l 0.0863,0.04315 q 0.1925,0 0.35514,-0.08962 0.17259,0.08962 0.4879,0.08962 h 0.22238 q 0.0431,0 0.26552,0.265525 0,0.398288 -0.75343,0.398288 0,-0.08962 -0.0896,-0.08962 l -0.0431,0.08962 v 0.08962 l 0.0896,0.132762 v 0.04315 q 0,0.229016 -0.13609,0.265525 h -0.0431 q -0.0896,0 -0.0896,-0.08962 v -0.265525 q -0.0863,0 -0.0863,-0.04315 -0.26553,0.05974 -0.26553,0.132763 v 0.132763 q 0.21906,0.03319 0.21906,0.132762 v 0.04647 q 0,0.09957 -0.0432,0.175911 0,0.06638 0.26553,0.222377 0,0.0863 -0.0896,0.0863 h -0.0431 l -0.17591,-0.132763 -0.0465,0.08962 v 0.17591 q 0,0.08962 0.35514,0.132763 l -0.0432,0.08961 v 0.08962 h 0.17591 q 0.34186,-0.35514 0.57752,-0.35514 0.35182,0.381693 0.35182,0.531051 -0.0431,0.132762 -0.0863,0.132762 l 0.0431,0.222378 -0.0431,0.17591 q 0.0431,0.07634 0.0431,0.17591 l -0.26553,0.132763 0.0431,0.08962 q 0,0.08961 -0.0863,0.08961 h -0.0465 q -0.0398,0 -0.35182,-0.08961 -0.0631,0.146039 -0.35514,0.265525 -0.0332,0 -0.26553,-0.04315 -0.0332,0 -0.26552,0.04315 -0.31199,-0.04315 -0.66382,-0.265525 l 0.0431,-0.222378 q 0,-0.08298 -0.22237,-0.398287 0.0896,0 0.13276,-1.370774 -0.0432,-0.0863 -0.0432,-0.132763 l 0.0896,-0.179229 q -0.13276,-0.04315 -0.13276,-0.265525 v -0.132763 l 0.0863,-0.132762 -0.30868,-0.04315 q -0.18918,0.07634 -0.39828,0.265525 -0.26553,-0.175911 -0.26553,-0.35514 0,-0.252249 0.4879,-0.308673 h 0.35183 l 0.17922,-0.132763 -0.0465,-0.08961 q 0.1228,-0.9724863 0.35514,-0.9724863 z m -0.0896,1.5500033 0.13277,0.0863 h 0.0465 v -0.0863 q 0,-0.08962 -0.0896,-0.08962 -0.0896,0.01328 -0.0896,0.08962 z m 0.79658,0.219058 v 0.04647 h 0.0896 v -0.04647 z m -0.0432,1.639618 q 0,0.06306 0.13276,0.132763 0.0896,0 0.0896,-0.08962 v -0.04315 q -0.0896,0 -0.0896,-0.04315 -0.0863,0.04315 -0.13276,0.04315 z"
         style="font-style:normal;font-variant:normal;font-weight:normal;font-stretch:normal;font-size:6.79744434px;font-family:X-Classified;-inkscape-font-specification:X-Classified;fill:#333333;stroke-width:0.12745208px"
         id="path845" />
      <path
         d="m 130.21769,9.5942321 q 0.39497,0.1593151 0.63726,0.1593151 l 0.19914,-0.039829 0.0398,0.079657 v 0.079658 l -0.0797,0.1194863 v 0.039829 h 0.0797 v 0.07966 h -0.0797 l -0.11948,-0.07966 h -0.15932 q 0,0.242291 -0.35846,0.242291 0,0.05974 -0.15931,0.119487 -0.16264,-0.03319 -0.16264,-0.07966 l -0.0796,0.03983 h -0.15932 q -0.31863,-0.146039 -0.31863,-0.199144 V 9.793376 q 0,-0.063062 0.15932,-0.1593151 h 0.31863 z m -0.44144,0.3982878 v 0.039829 l 0.19915,0.03983 h 0.0398 v -0.03983 q -0.0398,-0.076339 -0.0398,-0.1194867 h -0.11949 q -0.0797,0.013276 -0.0797,0.079658 z m 0.0398,0.6007511 q 0.86296,0 0.95921,0.438116 l 0.0398,0.07966 v 0.03983 q -0.11949,0.146039 -0.11949,0.282121 v 0.07966 q 0.11949,0.278802 0.19915,0.278802 l 0.0398,0.07966 q -0.19583,0.106211 -0.19915,0.159316 v 0.07966 q 0.0431,0 0.11949,0.03983 0,-0.05642 0.11948,-0.119486 0.0797,0.01328 0.0797,0.07966 -0.22901,0.199144 -0.43811,0.199144 v 0.122805 q 0.19914,0.01 0.19914,0.119487 -0.0797,0.129443 -0.0797,0.199144 h 0.0398 q 0.11949,0 0.2788,-0.07966 l 0.0398,0.07966 q -0.0797,0.129443 -0.0797,0.238972 l 0.28212,0.03983 h 0.23898 q 0.0631,0 0.15931,0.31863 0,0.441436 -0.64058,0.441436 -0.21242,0 -0.35846,0.07966 l -0.23897,-0.03983 -0.72024,0.119486 q -1.19818,0 -1.19818,-0.358459 0,-0.560922 0.60075,-0.560922 0,-0.03983 0.11949,-0.03983 h 0.15931 q 0,-0.215739 0.15932,-0.31863 v -0.03983 q 0,-0.08961 -0.0398,-0.159315 0.0398,-0.0697 0.0398,-0.162634 l -0.0398,-0.199144 0.11949,-0.238973 q 0,-0.08961 -0.19915,-0.398287 0,-0.119487 -0.11948,-0.199144 -0.42153,0.07966 -0.5211,0.07966 -0.15931,-0.169272 -0.15931,-0.321949 v -0.119486 q 0.15931,-0.31863 1.15835,-0.31863 z m -0.79989,0.358459 -0.0398,0.07966 0.0797,0.03983 q 0.20246,0 0.60075,-0.03983 v -0.03983 q -0.11949,0 -0.11949,-0.03983 l -0.15932,0.03983 z m 0.83972,0.07966 q 0,0.05974 0.11949,0.119486 v -0.03983 q 0,-0.07966 -0.0797,-0.07966 z m 1.11852,0.202463 h 0.11949 q 0.0797,0.01 0.0797,0.07966 v 0.03983 q 0,0.07966 -0.0797,0.07966 h -0.0797 q -0.0564,0 -0.11948,-0.119486 0.0133,-0.07966 0.0797,-0.07966 z m -0.99903,0.07966 q 0,0.03983 -0.0398,0.119486 l 0.0796,0.03983 0.0398,-0.07966 q 0,-0.07966 -0.0796,-0.07966 z m 1.83876,1.676127 h 0.0797 q 0.0564,0 0.11948,0.119487 0,0.06306 -0.15931,0.159315 h -0.0398 q -0.0896,0 -0.11949,-0.199144 z"
         style="font-style:normal;font-variant:normal;font-weight:normal;font-stretch:normal;font-size:6.79744434px;font-family:X-Classified;-inkscape-font-specification:X-Classified;fill:#333333;stroke-width:0.12745208px"
         id="path847" />
      <path
         d="m 133.33429,10.583313 q 0.37837,0.08962 0.37837,0.169273 l 0.083,-0.04315 h 0.0431 l 0.16927,0.169272 h 0.0398 q 0.0996,-0.252249 0.63394,-0.252249 l 0.083,0.03983 q 0.28876,-0.03983 0.46135,-0.03983 0.21242,0 0.46467,0.292078 v 0.04315 q -0.19251,0.202463 -0.33855,0.590793 l -0.16595,0.03983 q -0.083,-0.03983 -0.12613,-0.03983 0.16596,0.21242 0.16596,0.252249 -0.29208,0 -0.29208,0.587475 -0.21242,0.109529 -0.21242,0.335225 0.2954,0.215739 0.2954,0.252249 v 0.04315 q 0,0.08298 -0.083,0.08298 -0.0431,-0.07966 -0.0431,-0.126124 h -0.083 q -0.0631,0 -0.21242,0.255568 l 0.16927,0.165953 q 0,0.07966 -0.5045,0.21242 -0.12281,0.212421 -0.42152,0.335226 -0.26885,0 -0.46135,-0.335226 0,-0.09625 0.0398,-0.169272 -0.12613,-0.195825 -0.12613,-0.252249 l 0.0431,-0.0863 -0.33522,-0.839723 q -0.0963,0 -0.16928,-0.547646 -0.0863,0 -0.12612,-0.335225 -0.0763,0 -0.33855,-0.169272 -0.073,0.04315 -0.16595,0.04315 -0.0863,0 -0.0863,-0.0863 v -0.08298 h 0.16928 v -0.04315 l -0.25225,-0.209101 q 0.0597,-0.209101 0.29539,-0.209101 h 0.75675 z m 0.33523,0.504498 v 0.08298 q 0.0133,0.0863 0.0863,0.0863 0.13608,-0.0863 0.25225,-0.0863 v -0.08298 q -0.0863,0 -0.0863,-0.04315 -0.0631,0.04315 -0.25225,0.04315 z m 0.33854,0.169273 -0.21242,0.209101 q 0.0431,0.07302 0.0431,0.169272 -0.0597,0 -0.12613,0.126124 v 0.08298 q 0.20911,0.315311 0.20911,0.421521 h 0.0863 q 0.30204,-0.428159 0.5045,-0.843042 v -0.03983 l -0.0863,-0.126124 -0.083,0.03983 h -0.0431 z m 1.09197,0.08298 v 0.04315 h 0.0431 q 0.083,0 0.083,-0.0863 v -0.03983 h -0.0398 q -0.0863,0.01328 -0.0863,0.08298 z"
         style="font-style:normal;font-variant:normal;font-weight:normal;font-stretch:normal;font-size:6.79744434px;font-family:X-Classified;-inkscape-font-specification:X-Classified;fill:#333333;stroke-width:0.12745208px"
         id="path849" />
      <path
         d="m 138.25978,10.397446 h 0.0398 q 0.0796,0.01328 0.0796,0.07966 0,0.09293 -0.19914,0.119487 l -0.0398,-0.07966 q 0,-0.05642 0.11949,-0.119486 z m 0.19914,0.199144 h 0.0797 v 0.07966 h -0.0797 z m -0.87623,0.03983 q 0.81649,0.202463 0.87623,0.398288 l 0.2788,-0.03983 h 0.0398 q 0.0597,0 0.11949,0.122806 0,0.119486 -0.15932,0.119486 v 0.07966 q 0.0133,0.07966 0.0797,0.07966 -0.0797,0.434798 -0.0797,0.637261 0.24893,0.07966 0.28212,0.199144 v 0.03983 l -0.24229,0.159315 v 0.03983 q 0.0133,0.07966 0.0797,0.07966 h 0.16263 q 0.15268,-0.238973 0.19915,-0.238973 h 0.0797 l 0.15932,0.119486 0.0797,-0.03983 0.0398,0.07966 q 0,0.07966 -0.0797,0.07966 h -0.11949 q 0,0.03983 -0.0398,0.03983 0.14936,0.720238 0.55761,0.720238 l 0.0398,0.07966 v 0.03983 q 0,0.07966 -0.11948,0.07966 -0.17591,0 -0.35846,-0.07966 -0.0597,0.358459 -0.15932,0.358459 h -0.44143 q -0.0564,0 -0.5576,-0.199144 -0.19583,0.0531 -0.51778,0.31863 -0.15931,0 -0.15931,0.03983 -0.70365,0 -1.03887,-0.398288 -0.17591,0 -0.43812,-0.517774 h 0.0398 q -0.0797,-0.146039 -0.0797,-0.321949 v -0.159315 q 0.35846,-0.477946 0.59744,-0.477946 0.11948,0 0.4016,-0.07966 h 0.15932 l 0.19914,0.03983 q 0.0199,-0.159315 0.11949,-0.159315 0.12944,0.07966 0.23897,0.07966 0.0631,0 0.15932,-0.159315 -0.0398,0 -0.0398,-0.03983 l -0.19915,0.03983 h -0.11948 l -0.15932,-0.119486 q 0,0.07966 -0.11948,0.07966 l -0.23898,-0.03983 q -0.15931,0.03983 -0.28212,0.03983 -0.4016,-0.155996 -0.43811,-0.278801 v -0.119487 q 0,-0.288758 0.6804,-0.680408 0.33855,-0.03983 0.51778,-0.03983 z m -0.31863,0.358459 h 0.15931 q 0,-0.07966 -0.0797,-0.07966 -0.0797,0.01328 -0.0797,0.07966 z m 1.75578,0.242292 h 0.0398 q 0.0797,0.01 0.0797,0.07966 l -0.0797,0.03983 h -0.0398 z m 0.11949,0.358459 h 0.0398 q 0.0597,0 0.15931,0.159315 v 0.07966 q -0.10953,0.238972 -0.15931,0.238972 l -0.0398,-0.07966 q 0.0797,-0.129444 0.0797,-0.199144 -0.15932,-0.05974 -0.15932,-0.119486 0.01,-0.07966 0.0797,-0.07966 z m -0.11949,1.155035 q 0,0.04315 -0.0398,0.119486 l 0.0797,0.03983 q 0.0797,0 0.0797,-0.07966 0,-0.07966 -0.0797,-0.07966 z"
         style="font-style:normal;font-variant:normal;font-weight:normal;font-stretch:normal;font-size:6.79744434px;font-family:X-Classified;-inkscape-font-specification:X-Classified;fill:#333333;stroke-width:0.12745208px"
         id="path851" />
    </g>
    <g
       aria-label="Manual de sobrevivncia para labregos urbanos..."
       style="font-style:normal;font-variant:normal;font-weight:normal;font-stretch:normal;font-size:3.03293705px;line-height:125%;font-family:'Century Gothic';-inkscape-font-specification:'Century Gothic';letter-spacing:0px;word-spacing:0px;fill:#000000;fill-opacity:1;stroke:none;stroke-width:0.22747028px;stroke-linecap:butt;stroke-linejoin:miter;stroke-opacity:1"
       id="text4835">
      <path
         d="m 65.843453,46.838745 0.309514,-2.178442 h 0.03554 l 0.885594,1.787478 0.876708,-1.787478 h 0.03554 l 0.312475,2.178442 h -0.214734 l -0.213254,-1.557934 -0.770081,1.557934 h -0.05479 l -0.780448,-1.569782 -0.211772,1.569782 z"
         style="stroke-width:0.22747028px"
         id="path854" />
      <path
         d="m 70.304003,45.227497 v 1.611248 h -0.204368 v -0.276933 q -0.130321,0.158459 -0.293223,0.238429 -0.161421,0.07997 -0.353942,0.07997 -0.342094,0 -0.584965,-0.247315 -0.241391,-0.248795 -0.241391,-0.604218 0,-0.348017 0.244352,-0.595332 0.244353,-0.247315 0.587928,-0.247315 0.198444,0 0.358384,0.08441 0.161421,0.08441 0.282857,0.253239 v -0.296186 z m -0.829319,0.158459 q -0.173268,0 -0.31988,0.08589 -0.146611,0.08441 -0.233986,0.238429 -0.08589,0.154017 -0.08589,0.325804 0,0.170307 0.08737,0.325804 0.08737,0.155497 0.233986,0.242872 0.148093,0.08589 0.316918,0.08589 0.170307,0 0.322842,-0.08589 0.152536,-0.08589 0.233987,-0.232506 0.08293,-0.146611 0.08293,-0.330246 0,-0.279895 -0.185116,-0.467973 -0.183635,-0.188078 -0.453164,-0.188078 z"
         style="stroke-width:0.22747028px"
         id="path856" />
      <path
         d="m 70.771976,45.227497 h 0.207329 v 0.288781 q 0.124398,-0.165864 0.275453,-0.247315 0.151054,-0.08293 0.328765,-0.08293 0.180673,0 0.31988,0.09182 0.140688,0.09182 0.20733,0.247314 0.06664,0.155498 0.06664,0.484263 v 0.829319 h -0.205849 v -0.768601 q 0,-0.278414 -0.0237,-0.371712 -0.03702,-0.15994 -0.139207,-0.23991 -0.102184,-0.08145 -0.266567,-0.08145 -0.188077,0 -0.337651,0.124398 -0.148092,0.124397 -0.195482,0.308032 -0.02962,0.119955 -0.02962,0.438355 v 0.590889 h -0.207329 z"
         style="stroke-width:0.22747028px"
         id="path858" />
      <path
         d="m 72.593515,45.227497 h 0.208811 v 0.752311 q 0,0.275452 0.02962,0.379117 0.04443,0.148093 0.168826,0.233986 0.125879,0.08589 0.299147,0.08589 0.173268,0 0.293223,-0.08293 0.121436,-0.08441 0.167345,-0.220658 0.0311,-0.0933 0.0311,-0.395407 v -0.752311 h 0.211773 v 0.790815 q 0,0.333208 -0.07849,0.502034 -0.07701,0.168826 -0.233987,0.265086 -0.155497,0.09478 -0.390964,0.09478 -0.235467,0 -0.393926,-0.09478 -0.156979,-0.09626 -0.235468,-0.266567 -0.07701,-0.171787 -0.07701,-0.515362 z"
         style="stroke-width:0.22747028px"
         id="path860" />
      <path
         d="m 76.067768,45.227497 v 1.611248 H 75.8634 v -0.276933 q -0.130321,0.158459 -0.293223,0.238429 -0.161421,0.07997 -0.353941,0.07997 -0.342094,0 -0.584966,-0.247315 -0.241391,-0.248795 -0.241391,-0.604218 0,-0.348017 0.244353,-0.595332 0.244352,-0.247315 0.587927,-0.247315 0.198444,0 0.358384,0.08441 0.161421,0.08441 0.282857,0.253239 v -0.296186 z m -0.829319,0.158459 q -0.173268,0 -0.31988,0.08589 -0.146611,0.08441 -0.233986,0.238429 -0.08589,0.154017 -0.08589,0.325804 0,0.170307 0.08738,0.325804 0.08737,0.155497 0.233986,0.242872 0.148093,0.08589 0.316919,0.08589 0.170306,0 0.322841,-0.08589 0.152536,-0.08589 0.233987,-0.232506 0.08293,-0.146611 0.08293,-0.330246 0,-0.279895 -0.185116,-0.467973 -0.183635,-0.188078 -0.453164,-0.188078 z"
         style="stroke-width:0.22747028px"
         id="path862" />
      <path
         d="m 76.504641,44.605508 h 0.20733 v 2.233237 h -0.20733 z"
         style="stroke-width:0.22747028px"
         id="path864" />
      <path
         d="m 79.595335,44.605508 v 2.233237 h -0.204368 v -0.276933 q -0.130322,0.158459 -0.293223,0.238429 -0.161421,0.07997 -0.353942,0.07997 -0.342094,0 -0.584966,-0.247315 -0.241391,-0.248795 -0.241391,-0.604218 0,-0.348017 0.244353,-0.595332 0.244353,-0.247315 0.587928,-0.247315 0.198444,0 0.358384,0.08441 0.161421,0.08441 0.282857,0.253239 v -0.918175 z m -0.829319,0.780448 q -0.173268,0 -0.31988,0.08589 -0.146612,0.08441 -0.233986,0.238429 -0.08589,0.154017 -0.08589,0.325804 0,0.170307 0.08738,0.325804 0.08737,0.155497 0.233986,0.242872 0.148093,0.08589 0.316918,0.08589 0.170307,0 0.322842,-0.08589 0.152536,-0.08589 0.233986,-0.232506 0.08293,-0.146611 0.08293,-0.330246 0,-0.279895 -0.185115,-0.467973 -0.183635,-0.188078 -0.453164,-0.188078 z"
         style="stroke-width:0.22747028px"
         id="path866" />
      <path
         d="m 81.422798,46.304131 0.174749,0.09182 q -0.08589,0.168826 -0.198444,0.272491 -0.11255,0.103664 -0.253238,0.158459 -0.140688,0.05331 -0.318399,0.05331 -0.393927,0 -0.616066,-0.257681 -0.222139,-0.259162 -0.222139,-0.584966 0,-0.306552 0.188078,-0.546462 0.238429,-0.305071 0.638279,-0.305071 0.411698,0 0.657532,0.312476 0.174749,0.220658 0.177711,0.550904 h -1.448346 q 0.0059,0.281376 0.179192,0.462049 0.173268,0.179192 0.427988,0.179192 0.122917,0 0.238429,-0.04295 0.116993,-0.04295 0.198444,-0.114032 0.08145,-0.07108 0.17623,-0.229543 z m 0,-0.433912 q -0.04147,-0.165863 -0.121436,-0.265085 -0.07849,-0.09922 -0.20881,-0.159941 -0.130322,-0.06072 -0.273972,-0.06072 -0.236948,0 -0.407255,0.152536 -0.124397,0.111069 -0.188077,0.333208 z"
         style="stroke-width:0.22747028px"
         id="path868" />
      <path
         d="m 83.690095,45.403728 -0.133283,0.137726 q -0.165864,-0.161421 -0.324323,-0.161421 -0.100703,0 -0.173268,0.06664 -0.07108,0.06664 -0.07108,0.155498 0,0.07849 0.05924,0.149573 0.05924,0.07257 0.248796,0.170307 0.231024,0.119955 0.313956,0.231024 0.08145,0.112551 0.08145,0.253239 0,0.198444 -0.139207,0.33617 -0.139207,0.137726 -0.348018,0.137726 -0.139207,0 -0.266566,-0.06072 -0.125879,-0.06072 -0.208811,-0.167345 l 0.130322,-0.148092 q 0.158459,0.179192 0.33617,0.179192 0.124398,0 0.211772,-0.07997 0.08737,-0.07997 0.08737,-0.188078 0,-0.08885 -0.05776,-0.158459 -0.05776,-0.06812 -0.260643,-0.171787 -0.217696,-0.112551 -0.296186,-0.222139 -0.07849,-0.109589 -0.07849,-0.250277 0,-0.183635 0.124398,-0.305071 0.125879,-0.121436 0.316918,-0.121436 0.222139,0 0.44724,0.217697 z"
         style="stroke-width:0.22747028px"
         id="path870" />
      <path
         d="m 84.821523,45.186031 q 0.371713,0 0.616066,0.269529 0.222139,0.245834 0.222139,0.582004 0,0.337651 -0.235468,0.59089 -0.233986,0.251757 -0.602737,0.251757 -0.370231,0 -0.605699,-0.251757 -0.233986,-0.253239 -0.233986,-0.59089 0,-0.334689 0.222139,-0.580523 0.244353,-0.27101 0.617546,-0.27101 z m 0,0.202887 q -0.257681,0 -0.442797,0.19104 -0.185115,0.191039 -0.185115,0.462049 0,0.174749 0.08441,0.325804 0.08441,0.151054 0.228063,0.233986 0.14365,0.08145 0.315437,0.08145 0.171788,0 0.315438,-0.08145 0.143649,-0.08293 0.228062,-0.233986 0.08441,-0.151055 0.08441,-0.325804 0,-0.27101 -0.186597,-0.462049 -0.185115,-0.19104 -0.441316,-0.19104 z"
         style="stroke-width:0.22747028px"
         id="path872" />
      <path
         d="m 86.056616,46.838745 v -2.233237 h 0.205849 v 0.898923 q 0.130322,-0.159941 0.291743,-0.23843 0.161421,-0.07997 0.353941,-0.07997 0.342094,0 0.583485,0.248796 0.242872,0.247315 0.242872,0.601256 0,0.349499 -0.244353,0.596813 -0.244353,0.247315 -0.587928,0.247315 -0.196963,0 -0.356903,-0.08441 -0.15994,-0.08441 -0.282857,-0.253238 v 0.296185 z m 0.829319,-0.158459 q 0.173268,0 0.31988,-0.08441 0.146612,-0.08589 0.232506,-0.23991 0.08737,-0.154016 0.08737,-0.325804 0,-0.171787 -0.08737,-0.327284 -0.08738,-0.155498 -0.235468,-0.241391 -0.146611,-0.08738 -0.313956,-0.08738 -0.170307,0 -0.324323,0.08738 -0.152535,0.08589 -0.235467,0.232505 -0.08145,0.146612 -0.08145,0.330247 0,0.279895 0.183635,0.467972 0.185115,0.188078 0.454644,0.188078 z"
         style="stroke-width:0.22747028px"
         id="path874" />
      <path
         d="m 88.032172,45.227497 h 0.211773 v 0.235468 q 0.09478,-0.139207 0.199925,-0.20733 0.105145,-0.0696 0.219177,-0.0696 0.08589,0 0.183635,0.05479 l -0.108108,0.174749 q -0.06516,-0.02814 -0.109589,-0.02814 -0.103664,0 -0.199925,0.08589 -0.09626,0.08441 -0.146611,0.263605 -0.0385,0.137726 -0.0385,0.556828 v 0.544981 h -0.211773 z"
         style="stroke-width:0.22747028px"
         id="path876" />
      <path
         d="m 90.37944,46.304131 0.17475,0.09182 q -0.08589,0.168826 -0.198445,0.272491 -0.11255,0.103664 -0.253238,0.158459 -0.140688,0.05331 -0.318399,0.05331 -0.393926,0 -0.616065,-0.257681 -0.222139,-0.259162 -0.222139,-0.584966 0,-0.306552 0.188077,-0.546462 0.238429,-0.305071 0.638279,-0.305071 0.411698,0 0.657532,0.312476 0.174749,0.220658 0.177711,0.550904 h -1.448346 q 0.0059,0.281376 0.179192,0.462049 0.173268,0.179192 0.427988,0.179192 0.122917,0 0.238429,-0.04295 0.116993,-0.04295 0.198444,-0.114032 0.08145,-0.07108 0.17623,-0.229543 z m 0,-0.433912 q -0.04147,-0.165863 -0.121436,-0.265085 -0.07849,-0.09922 -0.20881,-0.159941 -0.130322,-0.06072 -0.273972,-0.06072 -0.236948,0 -0.407254,0.152536 -0.124398,0.111069 -0.188078,0.333208 z"
         style="stroke-width:0.22747028px"
         id="path878" />
      <path
         d="m 90.84297,45.227497 h 0.220658 l 0.539057,1.172894 0.534614,-1.172894 h 0.222139 l -0.737501,1.611248 h -0.03702 z"
         style="stroke-width:0.22747028px"
         id="path880" />
      <path
         d="m 92.750403,44.564042 q 0.07108,0 0.121436,0.05035 0.05035,0.05035 0.05035,0.121436 0,0.0696 -0.05035,0.119955 -0.05035,0.05035 -0.121436,0.05035 -0.0696,0 -0.119955,-0.05035 -0.05035,-0.05035 -0.05035,-0.119955 0,-0.07108 0.05035,-0.121436 0.05035,-0.05035 0.119955,-0.05035 z m -0.103664,0.663455 h 0.20881 v 1.611248 h -0.20881 z"
         style="stroke-width:0.22747028px"
         id="path882" />
      <path
         d="m 93.135444,45.227497 h 0.220658 l 0.539058,1.172894 0.534614,-1.172894 h 0.222139 l -0.737501,1.611248 h -0.03702 z"
         style="stroke-width:0.22747028px"
         id="path884" />
      <path
         d="m 96.326839,46.304131 0.17475,0.09182 q -0.08589,0.168826 -0.198444,0.272491 -0.112551,0.103664 -0.253239,0.158459 -0.140688,0.05331 -0.318399,0.05331 -0.393926,0 -0.616065,-0.257681 -0.222139,-0.259162 -0.222139,-0.584966 0,-0.306552 0.188077,-0.546462 0.23843,-0.305071 0.63828,-0.305071 0.411697,0 0.657531,0.312476 0.174749,0.220658 0.177711,0.550904 h -1.448346 q 0.0059,0.281376 0.179192,0.462049 0.173269,0.179192 0.427988,0.179192 0.122917,0 0.238429,-0.04295 0.116993,-0.04295 0.198444,-0.114032 0.08145,-0.07108 0.17623,-0.229543 z m 0,-0.433912 q -0.04147,-0.165863 -0.121436,-0.265085 -0.07849,-0.09922 -0.20881,-0.159941 -0.130322,-0.06072 -0.273972,-0.06072 -0.236948,0 -0.407254,0.152536 -0.124398,0.111069 -0.188078,0.333208 z m -0.698997,-1.315062 h 0.205849 l 0.429469,0.380598 h -0.266567 l -0.260643,-0.225101 -0.272491,0.225101 h -0.275452 z"
         style="stroke-width:0.22747028px"
         id="path886" />
      <path
         d="m 96.942904,45.227497 h 0.20733 v 0.288781 q 0.124398,-0.165864 0.275452,-0.247315 0.151055,-0.08293 0.328766,-0.08293 0.180673,0 0.31988,0.09182 0.140688,0.09182 0.20733,0.247314 0.06664,0.155498 0.06664,0.484263 v 0.829319 h -0.205848 v -0.768601 q 0,-0.278414 -0.0237,-0.371712 -0.03702,-0.15994 -0.139207,-0.23991 -0.102184,-0.08145 -0.266567,-0.08145 -0.188078,0 -0.337651,0.124398 -0.148093,0.124397 -0.195483,0.308032 -0.02962,0.119955 -0.02962,0.438355 v 0.590889 h -0.20733 z"
         style="stroke-width:0.22747028px"
         id="path888" />
      <path
         d="m 100.35496,45.562187 -0.16438,0.102184 q -0.213256,-0.282857 -0.582007,-0.282857 -0.294704,0 -0.490186,0.189558 -0.194001,0.189559 -0.194001,0.460568 0,0.176231 0.08885,0.331728 0.09034,0.155497 0.245834,0.241391 0.156978,0.08589 0.350979,0.08589 0.355423,0 0.580526,-0.282856 l 0.16438,0.108107 q -0.11551,0.173269 -0.31099,0.269529 -0.194006,0.09478 -0.442801,0.09478 -0.382079,0 -0.633837,-0.242872 -0.251757,-0.242872 -0.251757,-0.590889 0,-0.233987 0.116993,-0.433912 0.118474,-0.201406 0.324323,-0.313956 0.205849,-0.112551 0.460568,-0.112551 0.15994,0 0.308033,0.04887 0.149578,0.04887 0.253238,0.12736 0.10366,0.07849 0.17623,0.199925 z"
         style="stroke-width:0.22747028px"
         id="path890" />
      <path
         d="m 100.82441,44.564042 q 0.0711,0 0.12144,0.05035 0.0504,0.05035 0.0504,0.121436 0,0.0696 -0.0504,0.119955 -0.0503,0.05035 -0.12144,0.05035 -0.0696,0 -0.11995,-0.05035 -0.0503,-0.05035 -0.0503,-0.119955 0,-0.07108 0.0503,-0.121436 0.0504,-0.05035 0.11995,-0.05035 z m -0.10366,0.663455 h 0.20881 v 1.611248 h -0.20881 z"
         style="stroke-width:0.22747028px"
         id="path892" />
      <path
         d="m 102.96731,45.227497 v 1.611248 h -0.20436 v -0.276933 q -0.13032,0.158459 -0.29323,0.238429 -0.16142,0.07997 -0.35394,0.07997 -0.34209,0 -0.58496,-0.247315 -0.24139,-0.248795 -0.24139,-0.604218 0,-0.348017 0.24435,-0.595332 0.24435,-0.247315 0.58793,-0.247315 0.19844,0 0.35838,0.08441 0.16142,0.08441 0.28286,0.253239 v -0.296186 z m -0.82931,0.158459 q -0.17327,0 -0.31988,0.08589 -0.14662,0.08441 -0.23399,0.238429 -0.0859,0.154017 -0.0859,0.325804 0,0.170307 0.0874,0.325804 0.0874,0.155497 0.23399,0.242872 0.14809,0.08589 0.31692,0.08589 0.1703,0 0.32284,-0.08589 0.15253,-0.08589 0.23398,-0.232506 0.0829,-0.146611 0.0829,-0.330246 0,-0.279895 -0.18512,-0.467973 -0.18364,-0.188078 -0.45316,-0.188078 z"
         style="stroke-width:0.22747028px"
         id="path894" />
      <path
         d="m 104.27942,45.227497 h 0.20584 v 0.296186 q 0.12292,-0.168826 0.28286,-0.253239 0.15994,-0.08441 0.3569,-0.08441 0.34358,0 0.58793,0.247315 0.24436,0.247315 0.24436,0.595332 0,0.355423 -0.24288,0.604218 -0.24139,0.247315 -0.58348,0.247315 -0.19252,0 -0.35394,-0.07997 -0.16142,-0.07997 -0.29175,-0.238429 v 0.866342 h -0.20584 z m 0.82931,0.158459 q -0.26952,0 -0.45464,0.188078 -0.18363,0.188078 -0.18363,0.467973 0,0.183635 0.0815,0.330246 0.0829,0.146612 0.23546,0.232506 0.15402,0.08589 0.32433,0.08589 0.16734,0 0.31395,-0.08589 0.1481,-0.08738 0.23547,-0.242872 0.0874,-0.155497 0.0874,-0.325804 0,-0.171787 -0.0874,-0.325804 -0.0859,-0.154016 -0.23251,-0.238429 -0.14661,-0.08589 -0.31988,-0.08589 z"
         style="stroke-width:0.22747028px"
         id="path896" />
      <path
         d="m 107.94915,45.227497 v 1.611248 h -0.20437 v -0.276933 q -0.13032,0.158459 -0.29322,0.238429 -0.16142,0.07997 -0.35394,0.07997 -0.3421,0 -0.58497,-0.247315 -0.24139,-0.248795 -0.24139,-0.604218 0,-0.348017 0.24435,-0.595332 0.24436,-0.247315 0.58793,-0.247315 0.19844,0 0.35838,0.08441 0.16143,0.08441 0.28286,0.253239 v -0.296186 z m -0.82932,0.158459 q -0.17327,0 -0.31988,0.08589 -0.14661,0.08441 -0.23399,0.238429 -0.0859,0.154017 -0.0859,0.325804 0,0.170307 0.0874,0.325804 0.0874,0.155497 0.23399,0.242872 0.14809,0.08589 0.31692,0.08589 0.17031,0 0.32284,-0.08589 0.15254,-0.08589 0.23399,-0.232506 0.0829,-0.146611 0.0829,-0.330246 0,-0.279895 -0.18512,-0.467973 -0.18363,-0.188078 -0.45316,-0.188078 z"
         style="stroke-width:0.22747028px"
         id="path898" />
      <path
         d="m 108.33863,45.227497 h 0.21177 v 0.235468 q 0.0948,-0.139207 0.19993,-0.20733 0.10514,-0.0696 0.21918,-0.0696 0.0859,0 0.18363,0.05479 l -0.10811,0.174749 q -0.0652,-0.02814 -0.10959,-0.02814 -0.10366,0 -0.19992,0.08589 -0.0963,0.08441 -0.14661,0.263605 -0.0385,0.137726 -0.0385,0.556828 v 0.544981 h -0.21177 z"
         style="stroke-width:0.22747028px"
         id="path900" />
      <path
         d="m 110.9347,45.227497 v 1.611248 h -0.20437 v -0.276933 q -0.13032,0.158459 -0.29323,0.238429 -0.16142,0.07997 -0.35394,0.07997 -0.34209,0 -0.58496,-0.247315 -0.24139,-0.248795 -0.24139,-0.604218 0,-0.348017 0.24435,-0.595332 0.24435,-0.247315 0.58793,-0.247315 0.19844,0 0.35838,0.08441 0.16142,0.08441 0.28286,0.253239 v -0.296186 z m -0.82932,0.158459 q -0.17327,0 -0.31988,0.08589 -0.14662,0.08441 -0.23399,0.238429 -0.0859,0.154017 -0.0859,0.325804 0,0.170307 0.0874,0.325804 0.0874,0.155497 0.23399,0.242872 0.14809,0.08589 0.31692,0.08589 0.1703,0 0.32284,-0.08589 0.15253,-0.08589 0.23398,-0.232506 0.0829,-0.146611 0.0829,-0.330246 0,-0.279895 -0.18512,-0.467973 -0.18363,-0.188078 -0.45316,-0.188078 z"
         style="stroke-width:0.22747028px"
         id="path902" />
      <path
         d="m 112.21273,44.605508 h 0.20733 v 2.233237 h -0.20733 z"
         style="stroke-width:0.22747028px"
         id="path904" />
      <path
         d="m 114.4593,45.227497 v 1.611248 h -0.20437 v -0.276933 q -0.13032,0.158459 -0.29322,0.238429 -0.16142,0.07997 -0.35394,0.07997 -0.3421,0 -0.58497,-0.247315 -0.24139,-0.248795 -0.24139,-0.604218 0,-0.348017 0.24435,-0.595332 0.24436,-0.247315 0.58793,-0.247315 0.19845,0 0.35839,0.08441 0.16142,0.08441 0.28285,0.253239 v -0.296186 z m -0.82932,0.158459 q -0.17327,0 -0.31988,0.08589 -0.14661,0.08441 -0.23399,0.238429 -0.0859,0.154017 -0.0859,0.325804 0,0.170307 0.0874,0.325804 0.0874,0.155497 0.23398,0.242872 0.14809,0.08589 0.31692,0.08589 0.17031,0 0.32284,-0.08589 0.15254,-0.08589 0.23399,-0.232506 0.0829,-0.146611 0.0829,-0.330246 0,-0.279895 -0.18512,-0.467973 -0.18363,-0.188078 -0.45316,-0.188078 z"
         style="stroke-width:0.22747028px"
         id="path906" />
      <path
         d="m 114.9406,46.838745 v -2.233237 h 0.20585 v 0.898923 q 0.13032,-0.159941 0.29174,-0.23843 0.16143,-0.07997 0.35395,-0.07997 0.34209,0 0.58348,0.248796 0.24287,0.247315 0.24287,0.601256 0,0.349499 -0.24435,0.596813 -0.24435,0.247315 -0.58793,0.247315 -0.19696,0 -0.3569,-0.08441 -0.15994,-0.08441 -0.28286,-0.253238 v 0.296185 z m 0.82932,-0.158459 q 0.17327,0 0.31988,-0.08441 0.14661,-0.08589 0.23251,-0.23991 0.0874,-0.154016 0.0874,-0.325804 0,-0.171787 -0.0874,-0.327284 -0.0874,-0.155498 -0.23547,-0.241391 -0.14661,-0.08738 -0.31396,-0.08738 -0.1703,0 -0.32432,0.08738 -0.15253,0.08589 -0.23547,0.232505 -0.0814,0.146612 -0.0814,0.330247 0,0.279895 0.18364,0.467972 0.18511,0.188078 0.45464,0.188078 z"
         style="stroke-width:0.22747028px"
         id="path908" />
      <path
         d="m 116.91616,45.227497 h 0.21177 v 0.235468 q 0.0948,-0.139207 0.19993,-0.20733 0.10514,-0.0696 0.21917,-0.0696 0.0859,0 0.18364,0.05479 l -0.10811,0.174749 q -0.0652,-0.02814 -0.10959,-0.02814 -0.10366,0 -0.19992,0.08589 -0.0963,0.08441 -0.14662,0.263605 -0.0385,0.137726 -0.0385,0.556828 v 0.544981 h -0.21177 z"
         style="stroke-width:0.22747028px"
         id="path910" />
      <path
         d="m 119.26343,46.304131 0.17475,0.09182 q -0.0859,0.168826 -0.19845,0.272491 -0.11255,0.103664 -0.25324,0.158459 -0.14069,0.05331 -0.3184,0.05331 -0.39392,0 -0.61606,-0.257681 -0.22214,-0.259162 -0.22214,-0.584966 0,-0.306552 0.18808,-0.546462 0.23843,-0.305071 0.63828,-0.305071 0.41169,0 0.65753,0.312476 0.17475,0.220658 0.17771,0.550904 h -1.44835 q 0.006,0.281376 0.17919,0.462049 0.17327,0.179192 0.42799,0.179192 0.12292,0 0.23843,-0.04295 0.11699,-0.04295 0.19845,-0.114032 0.0815,-0.07108 0.17623,-0.229543 z m 0,-0.433912 q -0.0415,-0.165863 -0.12144,-0.265085 -0.0785,-0.09922 -0.20881,-0.159941 -0.13032,-0.06072 -0.27397,-0.06072 -0.23695,0 -0.40726,0.152536 -0.12439,0.111069 -0.18807,0.333208 z"
         style="stroke-width:0.22747028px"
         id="path912" />
      <path
         d="m 121.26712,45.227497 h 0.20881 v 1.283963 q 0,0.339133 -0.0592,0.496111 -0.0815,0.222139 -0.28285,0.342094 -0.20141,0.119955 -0.48427,0.119955 -0.20733,0 -0.37319,-0.05924 -0.16438,-0.05776 -0.26805,-0.156979 -0.10366,-0.09774 -0.19104,-0.287299 h 0.2251 q 0.0918,0.15994 0.23695,0.236948 0.14513,0.07701 0.35987,0.07701 0.21177,0 0.3569,-0.07997 0.14661,-0.07849 0.20881,-0.198444 0.0622,-0.119955 0.0622,-0.386522 v -0.08293 q -0.11699,0.148093 -0.28582,0.228063 -0.16882,0.07849 -0.35838,0.07849 -0.22214,0 -0.41762,-0.109588 -0.19549,-0.11107 -0.30211,-0.297667 -0.10663,-0.186596 -0.10663,-0.410216 0,-0.22362 0.11107,-0.41614 0.11107,-0.194002 0.30655,-0.306552 0.19697,-0.112551 0.41466,-0.112551 0.18067,0 0.33617,0.07553 0.15698,0.07405 0.30211,0.245833 z m -0.61162,0.158459 q -0.17623,0 -0.32729,0.08589 -0.15105,0.08441 -0.23695,0.235467 -0.0859,0.149574 -0.0859,0.324323 0,0.265086 0.17771,0.438354 0.17771,0.173269 0.46057,0.173269 0.28582,0 0.45909,-0.171788 0.17475,-0.171787 0.17475,-0.451682 0,-0.182154 -0.08,-0.324323 -0.08,-0.14365 -0.22658,-0.226582 -0.14662,-0.08293 -0.31544,-0.08293 z"
         style="stroke-width:0.22747028px"
         id="path914" />
      <path
         d="m 122.68585,45.186031 q 0.37171,0 0.61606,0.269529 0.22214,0.245834 0.22214,0.582004 0,0.337651 -0.23547,0.59089 -0.23398,0.251757 -0.60273,0.251757 -0.37023,0 -0.6057,-0.251757 -0.23399,-0.253239 -0.23399,-0.59089 0,-0.334689 0.22214,-0.580523 0.24435,-0.27101 0.61755,-0.27101 z m 0,0.202887 q -0.25768,0 -0.4428,0.19104 -0.18511,0.191039 -0.18511,0.462049 0,0.174749 0.0844,0.325804 0.0844,0.151054 0.22806,0.233986 0.14365,0.08145 0.31544,0.08145 0.17179,0 0.31544,-0.08145 0.14364,-0.08293 0.22806,-0.233986 0.0844,-0.151055 0.0844,-0.325804 0,-0.27101 -0.1866,-0.462049 -0.18511,-0.19104 -0.44131,-0.19104 z"
         style="stroke-width:0.22747028px"
         id="path916" />
      <path
         d="m 124.71768,45.403728 -0.13329,0.137726 q -0.16586,-0.161421 -0.32432,-0.161421 -0.1007,0 -0.17327,0.06664 -0.0711,0.06664 -0.0711,0.155498 0,0.07849 0.0592,0.149573 0.0592,0.07257 0.24879,0.170307 0.23103,0.119955 0.31396,0.231024 0.0815,0.112551 0.0815,0.253239 0,0.198444 -0.13921,0.33617 -0.13921,0.137726 -0.34802,0.137726 -0.1392,0 -0.26656,-0.06072 -0.12588,-0.06072 -0.20881,-0.167345 l 0.13032,-0.148092 q 0.15846,0.179192 0.33617,0.179192 0.1244,0 0.21177,-0.07997 0.0874,-0.07997 0.0874,-0.188078 0,-0.08885 -0.0578,-0.158459 -0.0578,-0.06812 -0.26064,-0.171787 -0.2177,-0.112551 -0.29619,-0.222139 -0.0785,-0.109589 -0.0785,-0.250277 0,-0.183635 0.1244,-0.305071 0.12588,-0.121436 0.31692,-0.121436 0.22214,0 0.44724,0.217697 z"
         style="stroke-width:0.22747028px"
         id="path918" />
      <path
         d="m 125.90094,45.227497 h 0.20881 v 0.752311 q 0,0.275452 0.0296,0.379117 0.0444,0.148093 0.16882,0.233986 0.12588,0.08589 0.29915,0.08589 0.17327,0 0.29322,-0.08293 0.12144,-0.08441 0.16735,-0.220658 0.0311,-0.0933 0.0311,-0.395407 v -0.752311 h 0.21177 v 0.790815 q 0,0.333208 -0.0785,0.502034 -0.077,0.168826 -0.23398,0.265086 -0.1555,0.09478 -0.39097,0.09478 -0.23547,0 -0.39393,-0.09478 -0.15697,-0.09626 -0.23546,-0.266567 -0.077,-0.171787 -0.077,-0.515362 z"
         style="stroke-width:0.22747028px"
         id="path920" />
      <path
         d="m 127.69138,45.227497 h 0.21177 v 0.235468 q 0.0948,-0.139207 0.19992,-0.20733 0.10515,-0.0696 0.21918,-0.0696 0.0859,0 0.18364,0.05479 l -0.10811,0.174749 q -0.0652,-0.02814 -0.10959,-0.02814 -0.10366,0 -0.19993,0.08589 -0.0963,0.08441 -0.14661,0.263605 -0.0385,0.137726 -0.0385,0.556828 v 0.544981 h -0.21177 z"
         style="stroke-width:0.22747028px"
         id="path922" />
      <path
         d="m 128.69544,46.838745 v -2.233237 h 0.20585 v 0.898923 q 0.13032,-0.159941 0.29175,-0.23843 0.16142,-0.07997 0.35394,-0.07997 0.34209,0 0.58348,0.248796 0.24287,0.247315 0.24287,0.601256 0,0.349499 -0.24435,0.596813 -0.24435,0.247315 -0.58793,0.247315 -0.19696,0 -0.3569,-0.08441 -0.15994,-0.08441 -0.28286,-0.253238 v 0.296185 z m 0.82932,-0.158459 q 0.17327,0 0.31988,-0.08441 0.14662,-0.08589 0.23251,-0.23991 0.0874,-0.154016 0.0874,-0.325804 0,-0.171787 -0.0874,-0.327284 -0.0874,-0.155498 -0.23547,-0.241391 -0.14661,-0.08738 -0.31395,-0.08738 -0.17031,0 -0.32433,0.08738 -0.15253,0.08589 -0.23546,0.232505 -0.0815,0.146612 -0.0815,0.330247 0,0.279895 0.18364,0.467972 0.18511,0.188078 0.45464,0.188078 z"
         style="stroke-width:0.22747028px"
         id="path924" />
      <path
         d="m 132.35481,45.227497 v 1.611248 h -0.20437 v -0.276933 q -0.13032,0.158459 -0.29322,0.238429 -0.16142,0.07997 -0.35394,0.07997 -0.34209,0 -0.58497,-0.247315 -0.24139,-0.248795 -0.24139,-0.604218 0,-0.348017 0.24436,-0.595332 0.24435,-0.247315 0.58792,-0.247315 0.19845,0 0.35839,0.08441 0.16142,0.08441 0.28285,0.253239 v -0.296186 z m -0.82932,0.158459 q -0.17327,0 -0.31988,0.08589 -0.14661,0.08441 -0.23398,0.238429 -0.0859,0.154017 -0.0859,0.325804 0,0.170307 0.0874,0.325804 0.0874,0.155497 0.23398,0.242872 0.1481,0.08589 0.31692,0.08589 0.17031,0 0.32284,-0.08589 0.15254,-0.08589 0.23399,-0.232506 0.0829,-0.146611 0.0829,-0.330246 0,-0.279895 -0.18511,-0.467973 -0.18364,-0.188078 -0.45317,-0.188078 z"
         style="stroke-width:0.22747028px"
         id="path926" />
      <path
         d="m 132.82278,45.227497 h 0.20733 v 0.288781 q 0.1244,-0.165864 0.27546,-0.247315 0.15105,-0.08293 0.32876,-0.08293 0.18067,0 0.31988,0.09182 0.14069,0.09182 0.20733,0.247314 0.0666,0.155498 0.0666,0.484263 v 0.829319 h -0.20585 v -0.768601 q 0,-0.278414 -0.0237,-0.371712 -0.037,-0.15994 -0.13921,-0.23991 -0.10218,-0.08145 -0.26657,-0.08145 -0.18807,0 -0.33765,0.124398 -0.14809,0.124397 -0.19548,0.308032 -0.0296,0.119955 -0.0296,0.438355 v 0.590889 h -0.20733 z"
         style="stroke-width:0.22747028px"
         id="path928" />
      <path
         d="m 135.43366,45.186031 q 0.37171,0 0.61606,0.269529 0.22214,0.245834 0.22214,0.582004 0,0.337651 -0.23546,0.59089 -0.23399,0.251757 -0.60274,0.251757 -0.37023,0 -0.6057,-0.251757 -0.23399,-0.253239 -0.23399,-0.59089 0,-0.334689 0.22214,-0.580523 0.24435,-0.27101 0.61755,-0.27101 z m 0,0.202887 q -0.25768,0 -0.4428,0.19104 -0.18511,0.191039 -0.18511,0.462049 0,0.174749 0.0844,0.325804 0.0844,0.151054 0.22806,0.233986 0.14365,0.08145 0.31544,0.08145 0.17179,0 0.31544,-0.08145 0.14365,-0.08293 0.22806,-0.233986 0.0844,-0.151055 0.0844,-0.325804 0,-0.27101 -0.1866,-0.462049 -0.18511,-0.19104 -0.44131,-0.19104 z"
         style="stroke-width:0.22747028px"
         id="path930" />
      <path
         d="m 137.46549,45.403728 -0.13328,0.137726 q -0.16587,-0.161421 -0.32432,-0.161421 -0.10071,0 -0.17327,0.06664 -0.0711,0.06664 -0.0711,0.155498 0,0.07849 0.0592,0.149573 0.0592,0.07257 0.2488,0.170307 0.23102,0.119955 0.31395,0.231024 0.0814,0.112551 0.0814,0.253239 0,0.198444 -0.1392,0.33617 -0.13921,0.137726 -0.34802,0.137726 -0.13921,0 -0.26657,-0.06072 -0.12588,-0.06072 -0.20881,-0.167345 l 0.13032,-0.148092 q 0.15846,0.179192 0.33617,0.179192 0.1244,0 0.21177,-0.07997 0.0874,-0.07997 0.0874,-0.188078 0,-0.08885 -0.0578,-0.158459 -0.0577,-0.06812 -0.26064,-0.171787 -0.2177,-0.112551 -0.29619,-0.222139 -0.0785,-0.109589 -0.0785,-0.250277 0,-0.183635 0.12439,-0.305071 0.12588,-0.121436 0.31692,-0.121436 0.22214,0 0.44724,0.217697 z"
         style="stroke-width:0.22747028px"
         id="path932" />
      <path
         d="m 138.06231,46.512941 q 0.0755,0 0.12884,0.05331 0.0533,0.05331 0.0533,0.130321 0,0.07553 -0.0533,0.130322 -0.0533,0.05331 -0.12884,0.05331 -0.0755,0 -0.12885,-0.05331 -0.0533,-0.05479 -0.0533,-0.130322 0,-0.07701 0.0533,-0.130321 0.0533,-0.05331 0.12885,-0.05331 z"
         style="stroke-width:0.22747028px"
         id="path934" />
      <path
         d="m 138.90347,46.512941 q 0.0755,0 0.12884,0.05331 0.0533,0.05331 0.0533,0.130321 0,0.07553 -0.0533,0.130322 -0.0533,0.05331 -0.12884,0.05331 -0.0755,0 -0.12884,-0.05331 -0.0533,-0.05479 -0.0533,-0.130322 0,-0.07701 0.0533,-0.130321 0.0533,-0.05331 0.12884,-0.05331 z"
         style="stroke-width:0.22747028px"
         id="path936" />
      <path
         d="m 139.74463,46.512941 q 0.0755,0 0.12884,0.05331 0.0533,0.05331 0.0533,0.130321 0,0.07553 -0.0533,0.130322 -0.0533,0.05331 -0.12884,0.05331 -0.0755,0 -0.12884,-0.05331 -0.0533,-0.05479 -0.0533,-0.130322 0,-0.07701 0.0533,-0.130321 0.0533,-0.05331 0.12884,-0.05331 z"
         style="stroke-width:0.22747028px"
         id="path938" />
    </g>
  </g>
</svg>
